<svg xmlns="http://www.w3.org/2000/svg" width="53" height="57.84" viewBox="0 0 53 57.84">
  <defs>
    <style>
      .cls-1 {
        fill: #fba681;
        fill-rule: evenodd;
      }
    </style>
  </defs>
  <path id="new_vector_shape_done" class="cls-1" d="M1178.88,8313.83v-1.23a4.472,4.472,0,0,1,.03-0.75,15.688,15.688,0,0,1-2.92-1.75c-0.3-.22-0.57-0.49-0.87-0.72a1.349,1.349,0,0,0-.35-0.28,1.032,1.032,0,0,1-.7.15h-7.68a2.137,2.137,0,0,1-.51-0.02,0.938,0.938,0,0,1-.63-0.53,1.936,1.936,0,0,1-.07-0.75v-24.9a2.975,2.975,0,0,1,.02-0.53v-0.15c0.07-.32.09-0.64,0.17-0.93a6.791,6.791,0,0,1,.79-1.72c0.18-.27.41-0.5,0.6-0.75a0.476,0.476,0,0,0,.25-0.3,1.455,1.455,0,0,0,.01-0.3c0.04-.18.02-0.38,0.06-0.57a11.307,11.307,0,0,1,.37-1.42,8.589,8.589,0,0,1,3.96-4.5,11.319,11.319,0,0,1,2.25-.87c0.37-.11.78-0.12,1.17-0.22,0.21-.05.46-0.02,0.68-0.06h0.31a0.608,0.608,0,0,1,.19-0.01c0.3-.03.65-0.01,0.97-0.01h7.24a2.25,2.25,0,0,1,.59.02h0.18a1.277,1.277,0,0,1,.29.02h0.23c0.09,0.02.24,0.02,0.32,0.04h0.15c0.43,0.1.89,0.09,1.3,0.2,0.25,0.07.53,0.11,0.78,0.18l0.18,0.03c0.53,0.18,1.08.31,1.57,0.52,0.16,0.08.32,0.1,0.47,0.18,0.68,0.34,1.36.63,1.98,1.02,0.36,0.22.71,0.47,1.05,0.71,0.25,0.19.47,0.4,0.72,0.59,0.02,0.02.04,0.05,0.07,0.08a2.313,2.313,0,0,1,.24.2,1.538,1.538,0,0,0,.12.13,3.9,3.9,0,0,1,.29.28,4.044,4.044,0,0,1,.35.37c0.05,0.07.14,0.13,0.19,0.2,0.2,0.26.44,0.51,0.63,0.78a12.131,12.131,0,0,1,1.56,2.92c0.16,0.44.25,0.92,0.39,1.41,0.05,0.21.05,0.43,0.1,0.64v0.1c0.02,0.07.07,0.15,0.09,0.22,0,0.13.01,0.26,0.01,0.39v11.16a0.06,0.06,0,0,0,.04.01c0.05-.02.09,0,0.15-0.02,0.19-.04.41-0.04,0.61-0.08,0.35-.09.76-0.09,1.11-0.18a1.948,1.948,0,0,0,.25-0.02,1.9,1.9,0,0,1,.79-0.07,1.063,1.063,0,0,1,.42.23,0.353,0.353,0,0,0,.22.21,1.411,1.411,0,0,1,.31-0.07c0.23-.06.48-0.08,0.72-0.15,0.85-.23,1.78-0.32,2.63-0.56,0.24-.07.5-0.09,0.73-0.15a1.132,1.132,0,0,0,.34-0.08,2.347,2.347,0,0,0,.09-0.4c0.08-.23.16-0.48,0.26-0.7a5.5,5.5,0,0,1,2.16-2.32,5.228,5.228,0,0,1,1.24-.47c0.18-.06.35-0.04,0.55-0.09a2.737,2.737,0,0,1,.59-0.04,4.405,4.405,0,0,1,1.62.26c0.19,0.07.36,0.11,0.53,0.19a5.248,5.248,0,0,1,2.52,2.61,5.5,5.5,0,0,1,.3.97,5.112,5.112,0,0,1-.11,2.41,4,4,0,0,1-.21.64,5.134,5.134,0,0,1-2.9,2.7,4.606,4.606,0,0,1-1.72.3,2.7,2.7,0,0,1-.65-0.04h-0.1c-0.25-.06-0.51-0.09-0.75-0.17a5.669,5.669,0,0,1-1.33-.65c-0.22-.16-0.42-0.36-0.63-0.52a0.711,0.711,0,0,0-.26-0.23,1.429,1.429,0,0,1-.37.07c-0.27.08-.55,0.1-0.83,0.18-0.21.05-.45,0.09-0.66,0.15-0.07.02-.11,0-0.17,0.02-0.79.23-1.64,0.31-2.42,0.52-0.31.08-.63,0.12-0.93,0.2a2.065,2.065,0,0,0-.47.09,2.105,2.105,0,0,0-.01.44c-0.02.04,0,.09-0.02,0.15a1.1,1.1,0,0,1-.09.23,1.044,1.044,0,0,1-.23.28,0.226,0.226,0,0,0-.12.09h0.01a1.74,1.74,0,0,0,.42.08c0.31,0.09.65,0.11,0.97,0.2,0.54,0.14,1.13.2,1.67,0.34,0.12,0.03.25,0.05,0.38,0.07,0.28,0.07.58,0.1,0.87,0.17a2.267,2.267,0,0,0,.53.11,2.689,2.689,0,0,1,.46-0.55,4.235,4.235,0,0,1,2.15-1.16,3.855,3.855,0,0,1,1.66.04c0.06,0.02.1,0,.16,0.02a4.25,4.25,0,0,1,2.74,2.4c0.05,0.11.06,0.22,0.11,0.34a4.211,4.211,0,0,1,.08,2.29,4.892,4.892,0,0,1-.86,1.67,3.263,3.263,0,0,1-.54.51c-0.06.04-.11,0.1-0.17,0.15a4.8,4.8,0,0,1-1.08.56,6.187,6.187,0,0,1-.65.15,2.661,2.661,0,0,1-1.02.05h-0.15c-0.12-.03-0.26-0.03-0.39-0.07a4.377,4.377,0,0,1-.98-0.35,4.193,4.193,0,0,1-1.04-.77c-0.06-.05-0.12-0.11-0.18-0.17-0.08-.1-0.17-0.19-0.24-0.29a0.69,0.69,0,0,0-.13-0.2,1.822,1.822,0,0,0-.35-0.06c-0.35-.1-0.73-0.12-1.08-0.22-0.21-.06-0.43-0.07-0.65-0.13-0.72-.19-1.49-0.26-2.21-0.45-0.27-.08-0.54-0.08-0.82-0.16-0.53-.14-1.12-0.2-1.66-0.34-0.15-.04-0.29-0.04-0.43-0.08-0.17-.05-0.36-0.06-0.54-0.11a0.7,0.7,0,0,0-.23-0.04,0.784,0.784,0,0,0-.01.27v2.5a4.044,4.044,0,0,1-.01.78v0.09a0.982,0.982,0,0,1-.49.64,3.2,3.2,0,0,1-1.23.09h-2.69a3.253,3.253,0,0,1-.23.29c-0.19.25-.42,0.46-0.61,0.71-0.08.07-.16,0.15-0.24,0.23a1.719,1.719,0,0,1-.33.33c-0.07.07-.13,0.14-0.2,0.21a3.264,3.264,0,0,1-.4.34c-0.16.13-.3,0.3-0.47,0.43-0.43.32-.85,0.66-1.31,0.95-0.36.23-.73,0.45-1.11,0.65-0.24.13-.51,0.22-0.75,0.36a3.5,3.5,0,0,1,.01.65v1.26a3.715,3.715,0,0,0,.75.01h7.18a1.372,1.372,0,0,0,.36.02c0.23,0.06.49,0.03,0.72,0.09a5.536,5.536,0,0,1,.56.11,11.294,11.294,0,0,1,1.28.41c0.08,0.04.16,0.05,0.25,0.09a10.474,10.474,0,0,1,1,.52,7.466,7.466,0,0,1,2.83,3.06,7.147,7.147,0,0,1,.5,1.48,6.707,6.707,0,0,1,.11,1.6v6.55a1.07,1.07,0,0,1-.38.59,1.732,1.732,0,0,1-.99.17h-37.46a2.039,2.039,0,0,1-.9-0.11,1.056,1.056,0,0,1-.48-0.71v-5.05a9.965,9.965,0,0,1,.24-2.83,8.275,8.275,0,0,1,4.97-5.3,14.154,14.154,0,0,1,1.9-.54c0.18-.04.34-0.02,0.52-0.06,0.15-.04.35-0.03,0.5-0.07h0.25a3.45,3.45,0,0,1,.65-0.02h6.51Zm10.05-19.41a3.089,3.089,0,0,0,.62-0.09h0.1c0.2-.05.45-0.06,0.65-0.11a1.961,1.961,0,0,0,.45-0.06,2.3,2.3,0,0,0,.01-0.53v-6.53c0.02-.07.04-0.15,0.06-0.23a0.971,0.971,0,0,1,.41-0.46,0.938,0.938,0,0,1,1.34.61,2.853,2.853,0,0,1,.02.72v6.15a1.56,1.56,0,0,0,.44-0.06h0.09c0.21-.05.46-0.06,0.66-0.11,0.14-.03.26-0.01,0.4-0.04,0.36-.09.76-0.09,1.11-0.18,0.21-.04.42-0.04,0.61-0.08a1.024,1.024,0,0,0,.33-0.06,0.566,0.566,0,0,0,.02-0.23v-11.1a3.276,3.276,0,0,1-.13-0.82c-0.14-.54-0.23-1.06-0.41-1.55a10.592,10.592,0,0,0-1.3-2.37c-0.16-.23-0.36-0.43-0.53-0.65-0.06-.08-0.16-0.15-0.23-0.23a3.91,3.91,0,0,0-.61-0.61c-0.16-.12-0.3-0.29-0.46-0.41-0.49-.37-0.99-0.73-1.53-1.06-0.12-.08-0.25-0.13-0.38-0.2a15.447,15.447,0,0,0-1.89-.84c-0.49-.19-1.03-0.29-1.55-0.44-0.19-.05-0.39-0.06-0.57-0.11s-0.39-.04-0.57-0.08h-0.12c-0.15-.04-0.34-0.03-0.49-0.07h-0.2c-0.11-.02-0.27.01-0.4-0.02a7.273,7.273,0,0,0-1.15-.02h-6.93a9.245,9.245,0,0,0-2.3.17c-0.18.05-.35,0.05-0.53,0.11a11.664,11.664,0,0,0-1.69.67,6.95,6.95,0,0,0-2.8,2.81,6.765,6.765,0,0,0-.41,1c-0.05.13-.04,0.24-0.09,0.38a4.986,4.986,0,0,0,.22,3.08,7.116,7.116,0,0,0,.41.83,6.95,6.95,0,0,0,3.4,2.58,6.653,6.653,0,0,0,.93.23c0.11,0.03.22,0.03,0.32,0.05h0.2a3.015,3.015,0,0,0,.53.02h1.58c0.33,0.08.72,0.04,1.04,0.13,0.24,0.06.5,0.09,0.74,0.17a11.471,11.471,0,0,1,1.52.61,8.528,8.528,0,0,1,3.5,3.44c0.18,0.33.32,0.69,0.48,1.04,0.04,0.1.04,0.19,0.08,0.29a12.434,12.434,0,0,1,.35,1.37c0.03,0.15.01,0.3,0.04,0.46a3.973,3.973,0,0,1,.04.86v1.34a5.266,5.266,0,0,0,.01.89h0.05a0.8,0.8,0,0,1,.24-0.04c0.18-.04.4-0.03,0.6-0.08,0.59-.14,1.23-0.15,1.84-0.27v-0.02a1.05,1.05,0,0,0,.01-0.31v-0.86a0.938,0.938,0,0,1,.39-0.61,0.724,0.724,0,0,1,.23-0.12,0.932,0.932,0,0,1,1.17.6A4.492,4.492,0,0,1,1188.93,8294.42Zm-21.91,12.99h6.17l0.02-.02a1,1,0,0,1-.21-0.25c-0.13-.17-0.27-0.33-0.4-0.51-0.27-.39-0.58-0.77-0.83-1.17-0.2-.32-0.37-0.64-0.56-0.97a18.631,18.631,0,0,1-1.45-3.23c-0.17-.46-0.27-0.95-0.41-1.42s-0.18-1.01-.3-1.51c-0.05-.2-0.04-0.41-0.09-0.61v-0.12c-0.05-.22-0.03-0.51-0.09-0.74v-0.22c-0.02-.11.01-0.28-0.02-0.41a5.8,5.8,0,0,1-.02-0.94v-11.73a2.269,2.269,0,0,1-.39-0.47,8.856,8.856,0,0,1-.73-1.14c-0.08-.15-0.15-0.32-0.22-0.47a0.367,0.367,0,0,0-.08-0.2v0.01a1.448,1.448,0,0,0-.16.38c-0.06.17-.12,0.37-0.17,0.55-0.04.15-.03,0.3-0.06,0.44v24.75Zm3.65-22.33v10.32a5.843,5.843,0,0,0,.04,1.12c0.02,0.09.01,0.19,0.02,0.26v0.15c0.06,0.26.04,0.55,0.11,0.82,0.06,0.23.07,0.48,0.13,0.71,0.21,0.78.36,1.55,0.63,2.27a20.793,20.793,0,0,0,2.37,4.63c0.31,0.44.67,0.85,1,1.28,0.13,0.18.33,0.32,0.46,0.5,0.07,0.09.16,0.15,0.23,0.24a2.717,2.717,0,0,0,.54.53c0.11,0.08.2,0.22,0.31,0.3,0.33,0.25.63,0.54,0.97,0.78a12.133,12.133,0,0,0,2.8,1.52c0.5,0.19,1.04.29,1.6,0.44,0.18,0.04.36,0.02,0.54,0.06a2.7,2.7,0,0,0,.28.04h0.21a3.907,3.907,0,0,0,1.08,0c0.09-.02.2,0,0.28-0.02h0.15c0.11-.02.26-0.04,0.38-0.06,0.15-.04.29-0.02,0.44-0.07,0.4-.11.81-0.18,1.19-0.32a13.217,13.217,0,0,0,2.55-1.28c0.25-.17.48-0.37,0.72-0.55s0.45-.37.69-0.55c0.12-.09.21-0.22,0.32-0.31s0.19-.2.3-0.29a0.617,0.617,0,0,0,.18-0.18,3.715,3.715,0,0,0-.75-0.01h-7.13c-0.06-.04-0.17-0.03-0.23-0.07a0.978,0.978,0,0,1-.47-0.45,2.131,2.131,0,0,1-.08-0.83v-6.9a2.1,2.1,0,0,1-1.58-.29,1.206,1.206,0,0,1-.24-0.48V8297a1.822,1.822,0,0,1,.21-1.2,1.7,1.7,0,0,1,1.07-.39,2.832,2.832,0,0,0,.53-0.07,0.868,0.868,0,0,0,.01-0.23v-2.74a0.934,0.934,0,0,1-.02-0.24c-0.03-.1-0.02-0.23-0.05-0.34a10.169,10.169,0,0,0-.3-1.18,7.169,7.169,0,0,0-.78-1.51c-0.19-.27-0.43-0.51-0.62-0.77a2.725,2.725,0,0,0-.25-0.23,1.538,1.538,0,0,1-.12-0.13c-0.11-.08-0.2-0.16-0.3-0.24-0.19-.14-0.38-0.3-0.59-0.43a7.454,7.454,0,0,0-1.79-.78c-0.24-.07-0.51-0.09-0.76-0.15-0.13-.03-0.28-0.02-0.4-0.05-0.29,0-.59,0-0.89-0.01a8.909,8.909,0,0,1-1.89-.07c-0.12-.03-0.22-0.01-0.34-0.05a9.285,9.285,0,0,1-1.78-.58c-0.22-.11-0.45-0.23-0.67-0.35A1.2,1.2,0,0,0,1170.67,8285.08Zm40.35,4.91a0.989,0.989,0,0,1-.3.04,4.144,4.144,0,0,0-.6.18,3.333,3.333,0,0,0-1.86,2.04,3.247,3.247,0,0,0-.05,1.67c0.05,0.15.05,0.27,0.11,0.41a3.294,3.294,0,0,0,1.84,1.84,4.059,4.059,0,0,0,.67.2c0.12,0.03.23-.01,0.36,0.02a1.77,1.77,0,0,0,.46,0,7.543,7.543,0,0,0,.75-0.17,3.342,3.342,0,0,0,1.84-1.72,3.3,3.3,0,0,0,0-2.58c-0.06-.12-0.09-0.22-0.15-0.33a3.291,3.291,0,0,0-1.7-1.43,5.845,5.845,0,0,0-.6-0.15A3.9,3.9,0,0,0,1211.02,8289.99Zm-9.29,5.98a4.4,4.4,0,0,0,.65-0.14c0.31-.09.63-0.11,0.93-0.2,0.06-.02.11,0,0.17-0.02,0.23-.06.48-0.09,0.73-0.15,0.69-.19,1.42-0.29,2.12-0.46v-0.03a1.45,1.45,0,0,1-.06-0.3,5.071,5.071,0,0,0-.13-0.56c-1.47.29-2.93,0.62-4.4,0.92v0.01h-0.01v0.93Zm-1.83-1.25a2.441,2.441,0,0,0-.62.09,2.105,2.105,0,0,0-.25.02c-0.2.05-.45,0.06-0.66,0.11-0.14.03-.26,0.01-0.4,0.04-0.55.13-1.16,0.13-1.71,0.26h-0.1c-0.21.05-.45,0.06-0.66,0.11-0.08.01-.17,0.01-0.25,0.02-0.2.05-.45,0.06-0.66,0.11-0.08.01-.16,0.01-0.25,0.02-0.2.05-.45,0.06-0.65,0.11h-0.1c-0.19.04-.41,0.04-0.61,0.09-0.55.13-1.16,0.12-1.71,0.26a1.948,1.948,0,0,0-.25.02c-0.26.06-.56,0.07-0.81,0.13-0.09.01-.17,0.01-0.25,0.02-0.19.05-.4,0.04-0.61,0.09-0.55.13-1.16,0.12-1.71,0.26-0.24.05-.47,0.03-0.71,0.08-0.35.09-.75,0.09-1.11,0.18a2.286,2.286,0,0,0-.25.02c-0.19.04-.4,0.04-0.6,0.09a2.8,2.8,0,0,1-.58.08,0.886,0.886,0,0,0-.03.37,1.167,1.167,0,0,0,.38.02h15.15v-0.01h0.01v-2.59Zm-25.7.3a0.948,0.948,0,0,1,.98.6c0.06,0.13.02,0.32,0.07,0.47a0.49,0.49,0,0,0,.39.31,0.285,0.285,0,0,0,.19-0.03,0.5,0.5,0,0,0,.28-0.25,1.516,1.516,0,0,0,.02-0.23,1.365,1.365,0,0,1,.07-0.29,1,1,0,0,1,.73-0.58,0.808,0.808,0,0,1,.54.11,0.939,0.939,0,0,1,.46.5,2.173,2.173,0,0,1-.26,1.48,2.443,2.443,0,0,1-1.31,1.04c-0.13.04-.28,0.05-0.42,0.08h-0.21a2.238,2.238,0,0,1-.67-0.08,2.2,2.2,0,0,1-1.48-1.32,1.8,1.8,0,0,1-.1-1.28,0.964,0.964,0,0,1,.43-0.44A2.457,2.457,0,0,0,1174.2,8295.02Zm10.17,4.14a2.314,2.314,0,0,0-.01.38v5.66a2.381,2.381,0,0,0,.01.38h2.73v-0.02a2.3,2.3,0,0,0,.01-0.46v-5.4a3.183,3.183,0,0,0-.01-0.54h-2.73Zm8.22,6.42h3.64v-0.02a1.717,1.717,0,0,0,.02-0.46v-5.4a3.132,3.132,0,0,0-.02-0.54h-3.64v0.7a1.428,1.428,0,0,1-.02.42,0.944,0.944,0,0,1-.75.71,0.876,0.876,0,0,1-.63-0.14,1,1,0,0,1-.39-0.47,5.282,5.282,0,0,1-.04-1.21,2.16,2.16,0,0,0-.57-0.01h-1.25a2.953,2.953,0,0,0-.01.6v5.81a2.772,2.772,0,0,0,.58.01h1.24a1.2,1.2,0,0,0,.01-0.27v-2.61a0.951,0.951,0,0,0,.04-0.18,1.008,1.008,0,0,1,.3-0.42,0.946,0.946,0,0,1,1.36.24,2.29,2.29,0,0,1,.13,1.09v2.15Zm16.69-5.5a1.327,1.327,0,0,1-.21.03,3.03,3.03,0,0,0-.43.12,2.356,2.356,0,0,0-1.29,1.32,4.939,4.939,0,0,0-.13.52,2.126,2.126,0,0,0,.06.85,2.212,2.212,0,0,0,1.26,1.52,1.977,1.977,0,0,0,.94.22h0.21a3.631,3.631,0,0,0,.59-0.14,2.408,2.408,0,0,0,1.26-1.13,2.905,2.905,0,0,0,.19-0.59,2.1,2.1,0,0,0-.08-1.15,2.323,2.323,0,0,0-1.58-1.51A2.79,2.79,0,0,0,1209.28,8300.08Zm-11.21.2v0.86a0.122,0.122,0,0,0,.09.02,0.3,0.3,0,0,0,.1.02c0.18,0.05.36,0.06,0.55,0.11,0.39,0.11.83,0.16,1.23,0.26,0.1,0.03.18,0.02,0.28,0.05,0.64,0.17,1.34.24,1.98,0.41,0.18,0.04.33,0.04,0.5,0.09,0.33,0.08.69,0.12,1.02,0.21,0.1,0.03.18,0.02,0.28,0.05,0.24,0.06.5,0.08,0.75,0.15,0.16,0.04.34,0.08,0.51,0.11a1.265,1.265,0,0,0,.01-0.28v-0.59h-0.02a0.587,0.587,0,0,0-.2-0.05c-0.14-.03-0.29-0.04-0.44-0.08-0.36-.1-0.76-0.14-1.12-0.24a2.7,2.7,0,0,0-.28-0.04c-0.79-.22-1.64-0.29-2.42-0.5-0.24-.07-0.47-0.07-0.71-0.13-0.33-.09-0.69-0.13-1.02-0.22a2.7,2.7,0,0,0-.28-0.04c-0.13-.04-0.28-0.05-0.43-0.09A2.328,2.328,0,0,0,1198.07,8300.28Zm-32.89,26.39h6.04a7.385,7.385,0,0,1,3.64-3.88,7.836,7.836,0,0,1,.99-0.39,1.552,1.552,0,0,1,.21-0.04,9.033,9.033,0,0,1,.99-0.22c0.14-.03.3-0.01,0.43-0.04h0.33a2.6,2.6,0,0,1,.74.02h0.16c0.19,0.04.4,0.03,0.6,0.08a8.671,8.671,0,0,1,1.54.48,7.48,7.48,0,0,1,2.83,2.17,1.161,1.161,0,0,0,.24.29,4.943,4.943,0,0,1,.36-0.44,2.649,2.649,0,0,1,.48-0.52c0.1-.07.17-0.19,0.26-0.26,0.27-.2.51-0.42,0.79-0.61a8.215,8.215,0,0,1,1.91-.91c0.26-.09.53-0.13,0.79-0.2,0.18-.04.34-0.02,0.53-0.06a1.665,1.665,0,0,1,.39-0.04h0.28a0.615,0.615,0,0,1,.27,0h0.36c0.15,0.03.34,0.03,0.48,0.06,0.23,0.06.45,0.04,0.66,0.11a7.979,7.979,0,0,1,.87.26,9.669,9.669,0,0,1,1.85,1.02c0.14,0.1.25,0.23,0.38,0.32a3.409,3.409,0,0,1,.61.59c0.06,0.09.17,0.16,0.23,0.25,0.19,0.25.39,0.49,0.55,0.75a9.416,9.416,0,0,1,.49.88c0.03,0.05.11,0.31,0.14,0.33h5.11a2.076,2.076,0,0,0,.01-0.56v-5.4a2.092,2.092,0,0,1-.01-0.26c-0.02-.1-0.01-0.23-0.04-0.34a6.606,6.606,0,0,0-.39-1.21,5.789,5.789,0,0,0-2.94-2.68,6.9,6.9,0,0,0-1.24-.39,12.254,12.254,0,0,0-2.84-.16h-6.48a1.888,1.888,0,0,1-1.3-.23,1.387,1.387,0,0,1-.29-1.15v-1.72a1.9,1.9,0,0,0-.36.09c-0.22.06-.46,0.07-0.68,0.13-0.19.05-.4,0.02-0.6,0.06-0.09.02-.24,0.03-0.33,0.05h-0.23a3.87,3.87,0,0,1-1.02,0h-0.23c-0.18-.04-0.4-0.03-0.58-0.08l-0.27-.03c-0.28-.07-0.57-0.1-0.83-0.19a3.458,3.458,0,0,0-.34-0.07,0.925,0.925,0,0,0-.01.24v1.66a1.984,1.984,0,0,1-.02.55,1.026,1.026,0,0,1-.37.53,1.7,1.7,0,0,1-.96.16h-7.55c-0.22.05-.47,0.02-0.69,0.07a13.566,13.566,0,0,0-1.36.3,6.82,6.82,0,0,0-4.1,3.42,5.127,5.127,0,0,0-.35,1,5.6,5.6,0,0,0-.13,1.53v4.68Zm8.06,0h9.19a1.175,1.175,0,0,0,.27-0.01l-0.01-.01a1.134,1.134,0,0,0-.16-0.26c-0.12-.18-0.25-0.35-0.38-0.52-0.05-.07-0.13-0.12-0.18-0.18a2.4,2.4,0,0,0-.46-0.44c-0.14-.1-0.27-0.23-0.41-0.33a5.888,5.888,0,0,0-1.55-.76c-0.23-.08-0.46-0.09-0.72-0.16a4.194,4.194,0,0,0-1.58-.02c-0.09.02-.15,0-0.23,0.02a6.651,6.651,0,0,0-1.85.7c-0.22.14-.44,0.3-0.65,0.45-0.06.05-.12,0.13-0.18,0.18a3.763,3.763,0,0,0-.82.91A1.517,1.517,0,0,0,1173.24,8326.67Zm11.88,0h9.45a1.371,1.371,0,0,0-.28-0.44,4.33,4.33,0,0,0-.86-0.95c-0.06-.04-0.12-0.11-0.18-0.16a5.807,5.807,0,0,0-.57-0.4,7.559,7.559,0,0,0-.99-0.48,6.61,6.61,0,0,0-.9-0.24,1.785,1.785,0,0,1-.23-0.02,3.235,3.235,0,0,0-.94-0.04c-0.15.03-.29-0.01-0.44,0.02a8.843,8.843,0,0,0-.98.22,6.819,6.819,0,0,0-1.55.78c-0.17.12-.32,0.29-0.48,0.41a3.748,3.748,0,0,0-.81.92A1.166,1.166,0,0,0,1185.12,8326.67Z" transform="translate(-1163.34 -8270.69)"/>
</svg>
