<svg xmlns="http://www.w3.org/2000/svg" width="36.969" height="55" viewBox="0 0 36.969 55">
  <defs>
    <style>
      .cls-1 {
        fill: #fba681;
        fill-rule: evenodd;
      }
    </style>
  </defs>
  <path id="new_vector_shape_done" class="cls-1" d="M6.659,19.939a3.041,3.041,0,0,1-.526-0.077c-0.108-.026-0.183,0-0.29-0.026-0.157-.038-0.35-0.064-0.5-0.1-0.376-.1-0.725-0.132-1.066-0.258a4.541,4.541,0,0,1-2.487-1.9,2.972,2.972,0,0,1-.263-2.552,5.476,5.476,0,0,1,.842-1.353c0.061-.08.162-0.14,0.224-0.22a3.993,3.993,0,0,1,.763-0.722c0.19-.14.348-0.336,0.54-0.477,0.542-.4,1.075-0.813,1.645-1.185,0.3-.2.616-0.381,0.921-0.567,0.135-.082.331-0.089,0.329-0.31a1.549,1.549,0,0,0,.053-0.387c0.089-.358.109-0.732,0.211-1.083a13.752,13.752,0,0,1,.869-2.449,11.277,11.277,0,0,1,4.725-5.027A12.34,12.34,0,0,1,14.174.579c0.184-.067.352-0.089,0.54-0.154a8.619,8.619,0,0,1,2.3-.4,5.135,5.135,0,0,1,1.145.012H18.4c0.3,0.067.617,0.052,0.908,0.129a11.076,11.076,0,0,1,2.027.644A12.24,12.24,0,0,1,23.11,1.868c0.164,0.118.309,0.265,0.474,0.387L23.7,2.383a3.193,3.193,0,0,1,.605.606c0.127,0.164.3,0.308,0.421,0.477a9.68,9.68,0,0,1,.75,1.16,1.118,1.118,0,0,0,.276.477,7.249,7.249,0,0,1,.829-0.013,4.178,4.178,0,0,1,.79,0,3.976,3.976,0,0,1,.737.026c0.157,0.035.343,0,.474,0.026s0.269,0,.369.026c0.17,0.037.308-.011,0.474,0.026,0.393,0.089.817,0.06,1.211,0.155s0.813,0.132,1.185.258a3.711,3.711,0,0,1,2.316,1.74A3.607,3.607,0,0,1,34.4,8c0.039,0.134.02,0.242,0.053,0.387a1.611,1.611,0,0,1,.026.477V9.228a6.556,6.556,0,0,1-.263,1.122,6.511,6.511,0,0,1-.421.851,6.314,6.314,0,0,1-1.7,1.7,13.811,13.811,0,0,1-1.553.915c-0.146.075-.294,0.148-0.434,0.22a0.393,0.393,0,0,0-.211.116,1.494,1.494,0,0,0,.079.477c0.047,0.155.051,0.274,0.105,0.413a2.617,2.617,0,0,0,.671.89,14.331,14.331,0,0,1,1.7,1.572,4.164,4.164,0,0,1,.605,1.3,3.328,3.328,0,0,1,.132.993v0.387c-0.05.205-.044,0.429-0.105,0.631a3.935,3.935,0,0,1-1,1.753l-0.2.206c-0.253.189-.485,0.408-0.737,0.593a2,2,0,0,0-.855,1.057,1.026,1.026,0,0,0,.132.7,4.472,4.472,0,0,0,.421.671c0.11,0.147.258,0.279,0.369,0.425a8.04,8.04,0,0,1,.632.928,6.018,6.018,0,0,1,.395.992c0.084,0.252.092,0.532,0.158,0.8,0.026,0.106.005,0.222,0.026,0.309v0.232a3.475,3.475,0,0,1-.079.851c-0.033.124-.016,0.215-0.053,0.335a4.888,4.888,0,0,1-.263.773,7.3,7.3,0,0,1-.605,1.032c-0.126.172-.29,0.319-0.421,0.49a1.075,1.075,0,0,1-.21.18c-0.12.089-.219,0.22-0.342,0.309a0.568,0.568,0,0,0-.263.22,0.6,0.6,0,0,1,.158.116c0.172,0.122.332,0.256,0.5,0.374,0.343,0.243.64,0.526,0.974,0.773,0.111,0.082.192,0.215,0.3,0.3a2.481,2.481,0,0,1,.474.464l0.145,0.13a4.346,4.346,0,0,1,.316.348c0.384,0.5.787,0.992,1.132,1.533A18.175,18.175,0,0,1,35.8,41.143c0.2,0.541.3,1.125,0.474,1.689,0.16,0.519.177,1.1,0.316,1.637v0.116c0.048,0.193.057,0.435,0.105,0.631v0.142c0.059,0.248.046,0.56,0.105,0.813v0.193c0.055,0.236.023,0.547,0.079,0.786v0.284c0.032,0.138-.011.326,0.026,0.49,0.041,0.181-.02.425,0.026,0.632a1.675,1.675,0,0,1,.026.322V49.52c0.024,0.105-.014.267,0.013,0.386a5.5,5.5,0,0,1,.013,1.006c0,1.288.1,2.333-.474,3.081a1.762,1.762,0,0,1-.948.541c-0.124.035-.267,0.026-0.382,0.052l-1.158.013a2.233,2.233,0,0,1-.408.013H32.533a3.1,3.1,0,0,1-.461.013c-0.177,0-.4.012-0.592,0.012-0.567,0-1.116.026-1.658,0.026h-1.29c-0.145.031-.352-0.022-0.513,0.013a6.47,6.47,0,0,1-1.066.012c-0.175,0-.355.013-0.513,0.014a2.46,2.46,0,0,0-.434.012H25.347c-0.471,0-.938,0-1.382.026H22.531a3.586,3.586,0,0,1-.487.013c-0.205.012-.458,0.013-0.684,0.013l-1.882.026H18.517c-0.145.031-.352-0.022-0.513,0.012a4.359,4.359,0,0,1-.816.013c-0.742,0-1.434.026-2.185,0.026-1.977,0-3.961.077-5.949,0.077l-3.067.039a4.8,4.8,0,0,1-.9.013H4.5a1.514,1.514,0,0,1-.461.012C3.965,54.977,3.821,55,3.724,55H2.434a5.457,5.457,0,0,1-1.079-.232A2.228,2.228,0,0,1,.1,53.233C0.058,53.083.061,52.9,0.025,52.756V52.473a1.039,1.039,0,0,1,0-.452c0.037-.12,0-0.355.026-0.477V51.326c0.05-.214.029-0.5,0.079-0.709V50.4c0.094-.4.037-0.887,0.132-1.289V48.9c0.047-.2.032-0.469,0.079-0.671V48.039c0.025-.105.028-0.281,0.053-0.387V47.459C0.5,47,.442,46.45.552,45.989V45.8c0.023-.1.029-0.261,0.053-0.36V45.254c0.042-.177.037-0.416,0.079-0.593V44.494c0.05-.209.025-0.445,0.079-0.671,0.141-.587.136-1.232,0.29-1.791,0.046-.166.031-0.313,0.079-0.477,0.175-.589.262-1.2,0.474-1.753a12.482,12.482,0,0,1,1.106-2.32c0.184-.285.4-0.556,0.605-0.824,0.091-.119.225-0.218,0.316-0.335a2.9,2.9,0,0,1,.553-0.554l0.171-.181c0.3-.225.572-0.5,0.882-0.722,0.713-.5,1.447-0.987,2.185-1.469,0.3-.194.6-0.375,0.895-0.567A1.2,1.2,0,0,0,8.659,32.6H8.567a1.775,1.775,0,0,0-.382-0.052C7.85,32.454,7.51,32.4,7.2,32.287a6.032,6.032,0,0,1-2.132-1.314,6.482,6.482,0,0,1-1.224-1.741,6.576,6.576,0,0,1-.369-1.1A5.584,5.584,0,0,1,3.5,25.585a6.521,6.521,0,0,1,.263-0.928c0.156-.35.291-0.714,0.474-1.044,0.364-.66.769-1.284,1.185-1.9,0.139-.2.3-0.405,0.447-0.606s0.254-.4.395-0.593A2.549,2.549,0,0,0,6.659,19.939ZM16.99,0.888a1.379,1.379,0,0,1-.316.026c-0.186.043-.4,0.028-0.592,0.078a12.153,12.153,0,0,0-1.764.464c-0.445.191-.888,0.371-1.3,0.593A9.807,9.807,0,0,0,9.528,5.284a12.5,12.5,0,0,0-.79,1.392,2.715,2.715,0,0,0-.25.554H8.514a4.866,4.866,0,0,1,.75-0.464c0.478-.292.982-0.583,1.487-0.851,0.257-.136.513-0.23,0.777-0.361a30.348,30.348,0,0,1,3.751-1.443c0.122-.042.219-0.036,0.342-0.078,0.581-.195,1.236-0.3,1.856-0.464,0.487-.128,1.009-0.141,1.5-0.258,0.2-.046.409-0.035,0.592-0.077h0.158c0.276-.063.626-0.041,0.908-0.1,0.222-.05.5,0.022,0.724-0.026a3.424,3.424,0,0,1,.658-0.026H23.15V3.055c-0.143-.09-0.248-0.238-0.382-0.336-0.259-.19-0.515-0.4-0.79-0.567A9.883,9.883,0,0,0,19.57,1.12C19.2,1.009,18.784,1,18.385.914h-0.2A6.5,6.5,0,0,0,16.99.888Zm7.739,4.266a0.977,0.977,0,0,0-.171-0.322c-0.125-.223-0.257-0.417-0.395-0.619a0.6,0.6,0,0,0-.224-0.27,0.773,0.773,0,0,1-.408.013l-0.987-.013c-0.207,0-.431.01-0.619,0.013a3.554,3.554,0,0,0-.632.026c-0.145.03-.315,0-0.434,0.026H20.61c-0.1.023-.277,0.028-0.382,0.051H20.057c-0.211.047-.446,0.025-0.671,0.078s-0.472.045-.711,0.1c-0.622.149-1.283,0.213-1.869,0.386-0.134.039-.25,0.034-0.382,0.078-0.59.2-1.214,0.338-1.777,0.541-0.151.055-.288,0.067-0.434,0.13-0.494.211-1.033,0.36-1.514,0.593-0.868.421-1.742,0.81-2.54,1.289C9.916,7.4,9.676,7.522,9.436,7.669c-0.309.188-.612,0.415-0.908,0.619-0.144.1-.282,0.2-0.421,0.3A0.428,0.428,0,0,0,8,8.647,1.278,1.278,0,0,0,7.922,9a3.082,3.082,0,0,0-.158.8H7.777a2.161,2.161,0,0,1,.342-0.168c0.278-.143.565-0.269,0.856-0.413,0.67-.332,1.4-0.615,2.093-0.928,0.257-.116.514-0.171,0.776-0.283C13.1,7.461,14.5,7.115,15.858,6.663c0.1-.032.167-0.02,0.263-0.052,0.39-.13.834-0.217,1.237-0.335,0.5-.146,1.018-0.205,1.514-0.335,0.167-.043.3-0.033,0.474-0.077,0.641-.164,1.363-0.2,2.027-0.361,0.235-.055.447-0.021,0.684-0.078,0.289-.067.642-0.063,0.934-0.129H23.15c0.18-.04.424-0.037,0.605-0.077h0.211A4.1,4.1,0,0,1,24.729,5.154Zm1.54,0.8a3.579,3.579,0,0,1-.605.013c-0.156.033-.36-0.013-0.54,0.026-0.262.057-.6,0.021-0.855,0.078-0.178.039-.325-0.013-0.5,0.026-0.332.073-.729,0.054-1.053,0.129-0.13.03-.227,0-0.355,0.026-0.351.082-.746,0.069-1.105,0.154-0.256.061-.535,0.061-0.8,0.129-0.613.157-1.258,0.2-1.869,0.362-1.037.275-2.1,0.472-3.08,0.8-0.283.095-.551,0.132-0.829,0.232-0.941.337-1.908,0.635-2.8,1-0.213.089-.422,0.138-0.632,0.232-0.991.448-2.005,0.843-2.948,1.341a30,30,0,0,0-3.04,1.83c-0.313.215-.6,0.47-0.908,0.7-0.131.1-.238,0.239-0.369,0.335a5.226,5.226,0,0,0-1.606,1.947c-0.034.077-.024,0.136-0.053,0.219a2.01,2.01,0,0,0,.368,1.792A3.873,3.873,0,0,0,4.737,18.7c0.271,0.1.573,0.134,0.856,0.206L5.83,18.934c0.178,0.044.408,0.061,0.592,0.1H6.553a3.239,3.239,0,0,0,.645.077,12.32,12.32,0,0,0,.776-1.521c0.147-.38.226-0.782,0.342-1.2,0.07-.252.046-0.55,0.105-0.8v-0.18c0.05-.209.024-0.448,0.079-0.671a7.288,7.288,0,0,1,.29-1.186,5.24,5.24,0,0,1,.553-0.966c0.117-.159.273-0.293,0.395-0.451a3.439,3.439,0,0,1,.592-0.5c0.245-.177.487-0.38,0.75-0.541,0.391-.239.795-0.425,1.211-0.645a19.823,19.823,0,0,1,2.935-1.16c0.4-.134.825-0.185,1.224-0.31,0.078-.024.131,0,0.21-0.026C17,8.868,17.4,8.836,17.754,8.751c0.2-.046.409-0.035,0.592-0.078h0.171c0.1-.022.266-0.028,0.369-0.051h0.224c0.127-.027.307,0.007,0.461-0.026a4.849,4.849,0,0,1,.9-0.026,4.351,4.351,0,0,1,.816.026H21.61c0.371,0.082.805,0.046,1.158,0.129,0.117,0.028.2,0,.316,0.026,0.373,0.09.775,0.1,1.145,0.206,0.4,0.115.828,0.175,1.224,0.31a10.619,10.619,0,0,1,2.106.876,4.633,4.633,0,0,1,1.922,1.972,5.346,5.346,0,0,1,.237.709,1.47,1.47,0,0,0,.066.36,0.062,0.062,0,0,0,.04.013,2.2,2.2,0,0,1,.434-0.22c0.232-.118.472-0.248,0.7-0.386a5.992,5.992,0,0,0,2.185-2.024,4.672,4.672,0,0,0,.395-1.057c0.029-.108.03-0.226,0.053-0.322V8.905A1.529,1.529,0,0,0,33.534,8.3a2.047,2.047,0,0,0-.592-1.1,3.9,3.9,0,0,0-1.711-.851c-0.247-.072-0.487-0.063-0.75-0.128-0.248-.062-0.56-0.069-0.816-0.129H29.506c-0.192-.044-0.448-0.035-0.645-0.078H28.625c-0.123-.027-0.3.006-0.448-0.026-0.212-.045-0.515.021-0.737-0.026a2.293,2.293,0,0,0-.408-0.013H26.269ZM19.925,9.447a1.568,1.568,0,0,0,.158.515,9.347,9.347,0,0,0,.395.955,11.037,11.037,0,0,0,.816,1.4c0.152,0.212.328,0.411,0.487,0.619,0.047,0.061.125,0.107,0.171,0.168a3.73,3.73,0,0,0,.7.7c0.071,0.053.126,0.141,0.2,0.193,0.182,0.134.353,0.268,0.54,0.4a1.211,1.211,0,0,0,.2.154H24.61a2.534,2.534,0,0,0,.5.026c0.241,0.053.515,0.02,0.763,0.077a6.336,6.336,0,0,1,1,.206,1.87,1.87,0,0,1,1.079,1.573,2.25,2.25,0,0,1,2.264,1.315,2.227,2.227,0,0,1,.158,1.34,3.421,3.421,0,0,1-.158.516,2.829,2.829,0,0,1-1.382,1.417,3.536,3.536,0,0,1-.592.181,3.024,3.024,0,0,1-1.132.077c-0.233-.051-0.474-0.1-0.684-0.154a5.449,5.449,0,0,1-.263,1.212c-0.072.213-.105,0.4-0.184,0.606a9.135,9.135,0,0,1-1.158,2.087,7.9,7.9,0,0,1-.855.954,1.008,1.008,0,0,0-.342.374,1.071,1.071,0,0,1,.04.258c0.037,0.143.056,0.3,0.105,0.451a7.057,7.057,0,0,0,.474,1.173,11.7,11.7,0,0,0,3.7,3.816c0.332,0.233.66,0.475,1,.709a1.857,1.857,0,0,0,.474.322,1.5,1.5,0,0,1,.329-0.206c0.141-.1.26-0.235,0.395-0.335a1.333,1.333,0,0,0,.263-0.232c0.132-.17.282-0.327,0.408-0.5a4.631,4.631,0,0,0,.566-1.16c0.067-.192.083-0.407,0.132-0.606V29.9a3.328,3.328,0,0,0-.026-1.122,4.667,4.667,0,0,0-.184-0.7,6.48,6.48,0,0,0-.461-0.9c-0.174-.268-0.416-0.495-0.605-0.747a9.284,9.284,0,0,1-.54-0.8,1.878,1.878,0,0,1-.29-1.032V24.374a2.7,2.7,0,0,1,.132-0.49,3.9,3.9,0,0,1,1.277-1.393,5.5,5.5,0,0,0,.632-0.529l0.145-.129a3.765,3.765,0,0,0,.553-0.966,6.14,6.14,0,0,0,.158-0.734V19.758a2.453,2.453,0,0,0-.184-0.992c-0.039-.087-0.037-0.163-0.079-0.245a4.006,4.006,0,0,0-.395-0.619,3.438,3.438,0,0,0-.645-0.593c-0.111-.081-0.2-0.2-0.316-0.283a5.008,5.008,0,0,1-1.106-1.083,3.46,3.46,0,0,1-.461-1.031c-0.052-.175-0.05-0.356-0.092-0.529l-0.013-.168-0.053-.039A0.664,0.664,0,0,1,28.875,14c-0.052-.188.107-0.3,0.053-0.529C28.892,13.326,28.9,13.153,28.848,13a4.308,4.308,0,0,0-.316-0.786,4.351,4.351,0,0,0-1.671-1.456c-0.167-.1-0.346-0.144-0.526-0.232a10.811,10.811,0,0,0-1.619-.541A16.893,16.893,0,0,0,19.925,9.447Zm-1.092.064a6.7,6.7,0,0,0-1.263.168c-0.1.024-.157,0-0.25,0.026-0.262.068-.565,0.107-0.816,0.181-0.1.03-.187,0.021-0.29,0.051-0.37.112-.752,0.184-1.119,0.309a15.965,15.965,0,0,0-3.119,1.367c-0.186.113-.37,0.2-0.553,0.31a4.917,4.917,0,0,0-1.632,1.6,4.614,4.614,0,0,0-.342.966c-0.064.224-.053,0.475-0.105,0.7-0.035.149,0.008,0.265-.026,0.413-0.106.453-.08,0.944-0.211,1.366a8.886,8.886,0,0,1-.316.993A16.478,16.478,0,0,1,7.58,20.2c-0.2.315-.441,0.625-0.658,0.928C6.4,21.859,5.882,22.6,5.4,23.368c-0.25.394-.444,0.826-0.658,1.251-0.074.148-.089,0.3-0.158,0.451a5,5,0,0,0-.211,2.978,6.25,6.25,0,0,0,.474,1.2A4.874,4.874,0,0,0,6.093,30.7a5.957,5.957,0,0,0,2.158.967,3.641,3.641,0,0,0,.9.078h0.5a1.08,1.08,0,0,0,.158.064,4.4,4.4,0,0,1,.54-0.425c0.189-.14.335-0.335,0.526-0.477l0.158-.18a6.572,6.572,0,0,0,.711-0.812,8.952,8.952,0,0,0,.632-0.941c0.135-.244.229-0.515,0.342-0.772a5.4,5.4,0,0,0,.211-0.826,4.52,4.52,0,0,0,.026-1.07c-0.077-.049-0.127-0.128-0.2-0.181a3.452,3.452,0,0,1-.658-0.67c-0.039-.05-0.106-0.091-0.145-0.141-0.144-.189-0.3-0.375-0.434-0.567a8.364,8.364,0,0,1-1.066-2.153c-0.088-.249-0.163-0.539-0.237-0.812-0.013-.094-0.026-0.189-0.039-0.283a0.828,0.828,0,0,1-.013-0.477,3.126,3.126,0,0,1,.948-0.618c0.526-.32,1.02-0.689,1.514-1.044,0.247-.177.464-0.4,0.711-0.58,0.153-.114.269-0.287,0.421-0.4a4.249,4.249,0,0,0,.421-0.4,6.182,6.182,0,0,0,.592-0.619l0.105-.091c0.139-.179.311-0.336,0.447-0.515,0.307-.4.625-0.8,0.921-1.211a18.317,18.317,0,0,0,1.343-2.308c0.137-.266.213-0.536,0.342-0.812a14.833,14.833,0,0,0,.658-1.895A4.937,4.937,0,0,0,18.833,9.511ZM18.609,17.1a2.525,2.525,0,0,1,.184-0.824,2.187,2.187,0,0,1,1.724-1.5c0.236-.066.509-0.05,0.75-0.1h0.224a3.627,3.627,0,0,1,.711-0.052l0.013-.025c-0.086-.057-0.144-0.148-0.224-0.206a3.561,3.561,0,0,1-.671-0.671c-0.05-.065-0.134-0.115-0.184-0.181-0.18-.234-0.381-0.456-0.553-0.7a12.765,12.765,0,0,1-1.132-2.024H19.425a1.577,1.577,0,0,1-.132.438c-0.1.265-.156,0.53-0.263,0.773-0.07.158-.091,0.308-0.158,0.464-0.252.583-.49,1.17-0.79,1.714-0.169.308-.337,0.629-0.526,0.928a2.71,2.71,0,0,0-.316.49,2.775,2.775,0,0,1,.855,1.534,0.251,0.251,0,0,0,.079.012A1.684,1.684,0,0,1,18.609,17.1Zm4.672-1.675a0.829,0.829,0,0,1-.184.012,5.372,5.372,0,0,1-.54.039H22.294c-0.1.022-.243,0-0.369,0.026-0.093.02-.225,0-0.342,0.026a6.15,6.15,0,0,0-1.277.232,1.61,1.61,0,0,0-.8,1.3c-0.045.181,0.016,0.358-.026,0.554a2.3,2.3,0,0,0,.026.761v0.141a2.236,2.236,0,0,0,1.014,1.7,3.692,3.692,0,0,0,1.816.36,4.929,4.929,0,0,0,.671,0h0.75c0.1-.021.225,0,0.342-0.026a8.357,8.357,0,0,0,.921-0.18,3,3,0,0,0,1.829-1.844,6.678,6.678,0,0,0,.158-0.657,3.127,3.127,0,0,0-.053-1.778,0.926,0.926,0,0,0-.8-0.516c-0.094-.022-0.153,0-0.25-0.026A12.506,12.506,0,0,0,23.281,15.428ZM12.792,20.352a3.3,3.3,0,0,1,.526.1c0.148,0.034.3,0.008,0.448,0.039a1.431,1.431,0,0,0,.461-0.013H14.45c0.122-.027.281-0.046,0.395-0.078,0.129-.035.231-0.035,0.355-0.077a3.28,3.28,0,0,0,1.751-1.341,2.34,2.34,0,0,0,.079-2.166,0.932,0.932,0,0,0-.316-0.438,2.487,2.487,0,0,1-.237.31c-0.133.18-.261,0.35-0.395,0.529-0.052.068-.132,0.125-0.184,0.193-0.2.261-.434,0.479-0.632,0.734l-0.211.194a3.535,3.535,0,0,1-.632.619c-0.128.095-.233,0.235-0.369,0.335-0.108.08-.194,0.2-0.3,0.284-0.206.152-.4,0.312-0.605,0.463a2.7,2.7,0,0,1-.355.271v0.039ZM27.98,17.309a2.348,2.348,0,0,1-.079.619c-0.053.2-.04,0.378-0.105,0.567a5.393,5.393,0,0,1-.527,1.173c-0.094.146-.21,0.288-0.316,0.426a0.628,0.628,0,0,0-.184.219h0.013v0.013a1.052,1.052,0,0,1,.224.051c0.114,0.028.243,0.014,0.355,0.039a1.611,1.611,0,0,0,.671-0.064,1.9,1.9,0,0,0,1.264-.89A2.176,2.176,0,0,0,29.48,19a1.481,1.481,0,0,0,0-.735A1.385,1.385,0,0,0,27.98,17.309Zm-2.461,3.815a5.251,5.251,0,0,0-.579.181c-0.264.077-.565,0.069-0.842,0.129h-0.25a6.4,6.4,0,0,1-1.171.026,6.1,6.1,0,0,1-2.185-.283,3.117,3.117,0,0,1-1.908-3.158,0.429,0.429,0,0,0-.132-0.013c-0.073.048-.216,0.017-0.29,0.064a2.717,2.717,0,0,0-.079.477,3.354,3.354,0,0,1-.316.8,4.213,4.213,0,0,1-2.2,1.778,6.406,6.406,0,0,1-.658.154,3.116,3.116,0,0,1-1.158.078c-0.178-.039-0.333.014-0.5-0.026-0.257-.061-0.527-0.08-0.777-0.154a5.58,5.58,0,0,0-.645-0.207,0.686,0.686,0,0,1-.171.1c-0.2.126-.405,0.249-0.605,0.374,0.078,0.213.082,0.454,0.158,0.67a9.22,9.22,0,0,0,.447,1.148,7.611,7.611,0,0,0,2.974,3.171c0.337,0.184.7,0.333,1.066,0.489a9.276,9.276,0,0,0,1.474.361c0.159,0.038.34,0.03,0.487,0.052h0.3a3.031,3.031,0,0,0,.619,0,5.686,5.686,0,0,0,1.579-.232c0.123-.041.222-0.037,0.342-0.078a7.906,7.906,0,0,0,.947-0.361,7.331,7.331,0,0,0,3.317-3.235,8.774,8.774,0,0,0,.474-1.07c0.065-.174.072-0.332,0.132-0.515A2.661,2.661,0,0,0,25.519,21.125Zm-8.094,20.1a1.34,1.34,0,0,1,.079-0.3c0.063-.213.08-0.435,0.132-0.644,0.077-.312.034-0.66,0.105-0.98V38.513a0.88,0.88,0,0,1,0-.438,0.5,0.5,0,0,1,.487-0.271,0.537,0.537,0,0,1,.329.22,2.484,2.484,0,0,1,.066.58,2.262,2.262,0,0,1-.013.786v0.283c-0.021.091-.031,0.247-0.053,0.335-0.041.169-.027,0.329-0.066,0.477a4.091,4.091,0,0,0-.105.606,7.719,7.719,0,0,0,1.29-.825c0.147-.107.263-0.267,0.408-0.373A4.839,4.839,0,0,0,21,38.9c0.2-.265.423-0.529,0.605-0.813a13.123,13.123,0,0,0,1.29-2.77c0.207-.588.3-1.223,0.474-1.843,0.061-.224.047-0.429,0.105-0.657,0.108-.426.106-0.924,0.211-1.366,0.039-.163.018-0.331,0.053-0.477,0.041-.178.014-0.378,0.053-0.542V30.238c0.026-.119.025-0.307,0.053-0.426V29.58l0.04-.232a0.466,0.466,0,0,0-.066-0.077c-0.1-.156-0.2-0.319-0.29-0.477a7.965,7.965,0,0,1-.579-1.392,2.238,2.238,0,0,1-.132-0.49,2.9,2.9,0,0,0-.5.3,7,7,0,0,1-1.066.491c-0.365.137-.758,0.223-1.145,0.335-0.19.055-.4,0.058-0.579,0.1-0.238.058-.5,0.023-0.737,0.078H18.425a4.28,4.28,0,0,1-.842-0.026h-0.2c-0.181-.041-0.39-0.03-0.579-0.078a9.724,9.724,0,0,1-1.882-.567c-0.284-.141-0.553-0.267-0.816-0.413A0.783,0.783,0,0,0,13.858,27a0.968,0.968,0,0,0-.013.193c-0.028.116-.019,0.259-0.053,0.386a9.16,9.16,0,0,1-.237.9,6.445,6.445,0,0,1-.29.683,4.241,4.241,0,0,0-.237.438,9.729,9.729,0,0,0-.237,1.018,3,3,0,0,0-.053.5v0.283a3.088,3.088,0,0,0,0,.619,6.24,6.24,0,0,0,.184,1.508c0.045,0.168.03,0.313,0.079,0.477,0.22,0.743.336,1.522,0.605,2.218a13.014,13.014,0,0,0,1.185,2.346c0.133,0.206.3,0.4,0.447,0.592,0.225,0.306.482,0.569,0.711,0.865l0.276,0.257a2.665,2.665,0,0,0,.513.477A1.618,1.618,0,0,0,17.425,41.22Zm7.252-10.75a4.978,4.978,0,0,1-.092.838v0.168c-0.018.073-.035,0.211-0.053,0.283V31.9c-0.062.251-.071,0.553-0.132,0.8-0.009.086-.018,0.171-0.026,0.258-0.074.288-.108,0.611-0.184,0.889-0.032.116-.015,0.208-0.053,0.322-0.146.443-.206,0.919-0.369,1.354A14.945,14.945,0,0,1,22.5,38.333c-0.288.455-.613,0.881-0.934,1.3-0.141.185-.346,0.333-0.487,0.516a1.892,1.892,0,0,1-.369.361c-0.128.093-.227,0.24-0.355,0.335-0.329.243-.642,0.475-1,0.7a3.541,3.541,0,0,1-1.079.529V42.1h0.013a0.884,0.884,0,0,0,.21.116c0.151,0.082.315,0.18,0.474,0.258,0.057,0.028.1,0.024,0.158,0.051a8.314,8.314,0,0,0,1.566.49c0.181,0.046.379,0.037,0.553,0.078h0.211a2.639,2.639,0,0,0,.895,0c0.153-.034.274,0.009,0.421-0.026,0.175-.042.373-0.051,0.553-0.1a6.1,6.1,0,0,0,1.3-.49c0.092-.054.183-0.079,0.276-0.13a6.665,6.665,0,0,0,.7-0.464,5.6,5.6,0,0,0,1.764-2.32c0.056-.125.059-0.24,0.105-0.373a4.9,4.9,0,0,0,.237-1.573,3.247,3.247,0,0,0-.026-0.644V36.748c-0.11-.458-0.111-0.935-0.237-1.366a13.184,13.184,0,0,0-.869-2.359,10.759,10.759,0,0,0-.816-1.379c-0.161-.224-0.373-0.417-0.54-0.631A2.362,2.362,0,0,0,24.676,30.47ZM11.8,31.437c-0.089.134-.245,0.223-0.342,0.348-0.22.285-.506,0.516-0.724,0.8-0.2.254-.419,0.49-0.605,0.748a12.83,12.83,0,0,0-1.027,1.637,8.582,8.582,0,0,0-.513,1.444,5.294,5.294,0,0,0,.039,2.836,5.889,5.889,0,0,0,.974,1.65,3.359,3.359,0,0,0,.671.605c0.192,0.141.384,0.3,0.592,0.425a6.2,6.2,0,0,0,1.277.542c0.245,0.081.52,0.094,0.777,0.155h0.145a3.786,3.786,0,0,0,1.25,0h0.145c0.282-.067.591-0.1,0.842-0.181,0.092-.03.162-0.019,0.25-0.051a8.451,8.451,0,0,0,.869-0.349,0.568,0.568,0,0,0,.316-0.18,2.45,2.45,0,0,1-.619-0.464,4.94,4.94,0,0,1-.5-0.463,7.9,7.9,0,0,1-.763-0.825c-0.2-.258-0.427-0.506-0.619-0.773a13.523,13.523,0,0,1-1.211-2.153,21.031,21.031,0,0,1-.684-2.088c-0.035-.1-0.022-0.179-0.053-0.283a11.95,11.95,0,0,1-.461-3.377H11.8Zm15.7,1.418a3.048,3.048,0,0,0,.211.464c0.14,0.322.251,0.673,0.369,1.005,0.084,0.238.108,0.463,0.184,0.709a8.089,8.089,0,0,1,.158,4.047c-0.059.192-.064,0.361-0.132,0.542a6.606,6.606,0,0,1-3.474,3.751,7.808,7.808,0,0,1-.961.335c-0.317.106-.694,0.146-1.053,0.232-0.165.039-.312-0.012-0.487,0.026a2.282,2.282,0,0,1-.8,0H21.254c-0.132-.031-0.29-0.017-0.434-0.051-0.222-.054-0.461-0.067-0.684-0.13-0.279-.078-0.575-0.163-0.829-0.258a8.08,8.08,0,0,1-1.408-.644,2.6,2.6,0,0,1-.526-0.322,1.435,1.435,0,0,0-.3.167c-0.163.087-.339,0.154-0.5,0.233a8.532,8.532,0,0,1-1.553.464c-0.175.046-.36,0.039-0.526,0.078H14.318a2.553,2.553,0,0,1-.777.026H13.16c-0.2-.045-0.426-0.024-0.632-0.078a10.494,10.494,0,0,1-1.079-.283A6.132,6.132,0,0,1,8.08,40.228a6.248,6.248,0,0,1-.342-0.915,6.107,6.107,0,0,1-.026-3.106,10.136,10.136,0,0,1,.658-1.753c0.173-.326.4-0.631,0.566-0.954H8.9a3.127,3.127,0,0,1-.606.387c-0.363.225-.73,0.46-1.092,0.7-0.482.315-.956,0.646-1.421,0.98-0.226.162-.423,0.378-0.645,0.542a4.349,4.349,0,0,0-.842.812c-0.134.173-.316,0.324-0.447,0.5a11.715,11.715,0,0,0-1.237,2.243c-0.145.326-.226,0.693-0.342,1.031-0.043.126-.039,0.232-0.079,0.361-0.18.58-.237,1.237-0.395,1.856-0.043.169-.011,0.306-0.053,0.477-0.1.426-.082,0.928-0.184,1.366-0.039.166-.017,0.359-0.053,0.516v0.18c-0.022.093-.031,0.254-0.053,0.348v0.194C1.36,46.359,1.4,46.8,1.315,47.175v0.193c-0.046.2-.033,0.459-0.079,0.657v0.194a4.159,4.159,0,0,0-.079.8,2.521,2.521,0,0,1-.053.464v0.206c-0.025.111-.027,0.289-0.053,0.4v0.206c-0.025.112-.027,0.29-0.053,0.4v0.219c-0.049.218-.029,0.5-0.079,0.722v0.284a1.632,1.632,0,0,0,0,.619c0.03,0.132-.005.24,0.026,0.361a2.085,2.085,0,0,0,.355.786c0.349,0.452,1.219.439,2.04,0.439,1.524,0,3.014-.05,4.541-0.052,0.063-.186-0.009-0.411.039-0.631s-0.021-.5.026-0.722a4.889,4.889,0,0,0,.026-0.954,3.175,3.175,0,0,0-.013-0.593V50.862a2.327,2.327,0,0,1-.013-0.426A4.547,4.547,0,0,0,7.9,49.649V49.366c-0.073-.322-0.033-0.714-0.105-1.03V48.168c-0.05-.218-0.023-0.464-0.079-0.7-0.152-.628-0.15-1.33-0.316-1.934-0.05-.18-0.031-0.337-0.079-0.515-0.119-.441-0.207-0.91-0.3-1.354a0.451,0.451,0,0,1,.855-0.232,1.676,1.676,0,0,1,.053.232c0.116,0.4.174,0.864,0.29,1.276,0.05,0.18.034,0.335,0.079,0.516,0.126,0.5.142,1.069,0.263,1.586,0.05,0.212.033,0.435,0.079,0.631,0.057,0.245.026,0.515,0.079,0.748v0.193C8.8,48.99,8.732,49.45,8.817,49.83v0.387a5.041,5.041,0,0,1,.04.928,2.071,2.071,0,0,0,.013.373q-0.02.922-.04,1.843a3.232,3.232,0,0,0-.026.7l18.544-.245a0.885,0.885,0,0,0,.013-0.245,2.467,2.467,0,0,1-.013-0.593,3.282,3.282,0,0,1,.026-0.67c0.045-.2-0.015-0.46.026-0.644v-0.31c0.023-.1,0-0.238.026-0.362,0.1-.429.058-0.926,0.158-1.341,0.029-.117,0-0.206.026-0.321,0.113-.455.113-0.953,0.237-1.405,0.047-.173.082-0.385,0.132-0.554,0.022-.078,0-0.13.026-0.206,0.061-.185.083-0.394,0.145-0.593,0.136-.438.238-0.905,0.382-1.327,0.181-.531.329-1.052,0.527-1.547a0.445,0.445,0,0,1,.5-0.322,0.467,0.467,0,0,1,.368.529c-0.072.253-.2,0.525-0.29,0.774-0.12.316-.174,0.627-0.289,0.953-0.219.619-.32,1.322-0.526,1.973-0.066.208-.045,0.4-0.105,0.619-0.1.355-.12,0.776-0.211,1.147-0.028.114,0,.195-0.026,0.309-0.054.224-.052,0.508-0.105,0.735v0.181a4.56,4.56,0,0,0-.079.928c0,0.52-.053,1.05-0.053,1.611a2.335,2.335,0,0,0,.026.683c0.158-.028.379,0.024,0.553-0.013a5.411,5.411,0,0,1,.974-0.013h0.513c0.145-.03.352,0.022,0.513-0.013a4.3,4.3,0,0,1,.777-0.012l2.106-.026c0.71,0,1.841.071,2.132-.323a3.845,3.845,0,0,0,.25-2V50.1a3.72,3.72,0,0,0-.026-0.748V49.121a3.243,3.243,0,0,0-.026-0.644V48.025c-0.094-.419-0.011-0.942-0.105-1.353v-0.22c-0.061-.265-0.044-0.59-0.105-0.851V45.448c-0.058-.238-0.043-0.511-0.105-0.76-0.158-.637-0.212-1.314-0.395-1.908-0.021-.068-0.005-0.113-0.026-0.18a18.848,18.848,0,0,0-1.053-2.952,16.636,16.636,0,0,0-1.263-2.153,12.743,12.743,0,0,0-3.067-2.939c-0.134-.095-0.261-0.215-0.395-0.31-0.45-.317-0.9-0.616-1.356-0.928-0.157-.108-0.313-0.224-0.474-0.335A0.627,0.627,0,0,0,27.506,32.855Z" transform="translate(-0.031)"/>
</svg>
