<svg xmlns="http://www.w3.org/2000/svg" width="57.781" height="57.84" viewBox="0 0 57.781 57.84">
  <defs>
    <style>
      .cls-1 {
        fill: #fba681;
        fill-rule: evenodd;
      }
    </style>
  </defs>
  <path id="new_vector_shape_done" class="cls-1" d="M812.5,8270.7c0.251,0.03.637,0,.934,0h34.937a4.7,4.7,0,0,1,1.395.11,3.44,3.44,0,0,1,2.436,2.52,8.565,8.565,0,0,1,.081,2v0.75a2.646,2.646,0,0,0,.217.36c0.127,0.24.225,0.46,0.352,0.69,1.481,2.72,2.986,5.43,4.467,8.15,0.51,0.93,1.056,1.86,1.57,2.8a11.983,11.983,0,0,1,.785,1.46,4.229,4.229,0,0,1,.054,1.21,10.268,10.268,0,0,1-.162,2.7,6.042,6.042,0,0,1-.6,1.4c-0.145.24-.327,0.45-0.487,0.67a4.8,4.8,0,0,1-.433.49c-0.041.04-.081,0.09-0.122,0.13-0.252.19-.48,0.42-0.745,0.6a1.4,1.4,0,0,0-.379.24,1.952,1.952,0,0,0-.013.49v28.54a4.139,4.139,0,0,1-.23,2.08,1.382,1.382,0,0,1-.745.43H805.869a1.379,1.379,0,0,1-.744-0.43,1.6,1.6,0,0,1-.217-0.46,2.873,2.873,0,0,1-.013-0.65v-29.21a4.952,4.952,0,0,0-.014-0.82,0.947,0.947,0,0,1-.352-0.21c-0.2-.14-0.38-0.27-0.568-0.41-0.089-.07-0.156-0.18-0.244-0.24a3.465,3.465,0,0,1-.7-0.8,5.449,5.449,0,0,1-1.056-3.44v-1.51a2.632,2.632,0,0,1,.041-0.76,12.879,12.879,0,0,1,.907-1.69c0.5-.91,1.022-1.8,1.516-2.71,1.52-2.78,3.057-5.56,4.575-8.34,0.1-.19.172-0.36,0.271-0.55a1.42,1.42,0,0,0,.135-0.21v-2.18c0.042-.19.03-0.39,0.082-0.57a4.305,4.305,0,0,1,.351-0.91,3.57,3.57,0,0,1,1.611-1.45,4,4,0,0,1,.718-0.22A0.888,0.888,0,0,0,812.5,8270.7Zm0.108,2.27a1.1,1.1,0,0,1-.2.06,1.6,1.6,0,0,0-.365.22c-0.462.34-.369,1.16-0.366,1.96a1.152,1.152,0,0,0,.325.01h38a1.691,1.691,0,0,0,.013-0.43v-0.89a2.312,2.312,0,0,1-.108-0.32,1.173,1.173,0,0,0-.555-0.52,2.537,2.537,0,0,0-.948-0.09H812.61Zm3.114,4.52H811.7a2.9,2.9,0,0,0-.514.01,0.813,0.813,0,0,1-.135.24q-0.193.36-.379,0.69c-0.326.6-.626,1.21-0.975,1.78-0.087.14-.136,0.29-0.216,0.43-0.2.36-.4,0.72-0.6,1.09-0.688,1.26-1.392,2.52-2.085,3.79-0.392.72-.795,1.44-1.191,2.17-0.089.16-.208,0.33-0.3,0.5-0.053.1-.078,0.19-0.135,0.28a1.4,1.4,0,0,0-.162.29h0.013a2.159,2.159,0,0,0,.514.01h6.417a5.519,5.519,0,0,0,.2-0.59c0.187-.51.322-1.03,0.514-1.55,0.48-1.28.849-2.64,1.327-3.93,0.128-.34.2-0.68,0.325-1.03,0.259-.69.472-1.44,0.73-2.14,0.079-.21.111-0.41,0.19-0.62,0.107-.29.187-0.59,0.3-0.9A2.081,2.081,0,0,0,815.724,8277.49Zm2.409,0a5.519,5.519,0,0,0-.2.59c-0.187.5-.322,1.03-0.514,1.55-0.5,1.34-.883,2.76-1.381,4.1-0.138.37-.213,0.74-0.352,1.11-0.25.67-.455,1.39-0.7,2.06-0.068.19-.093,0.36-0.162,0.54-0.107.29-.187,0.6-0.3,0.9a1.468,1.468,0,0,0-.135.42,2.565,2.565,0,0,0,.622.01h5.835a0.142,0.142,0,0,0,.027-0.08,1.059,1.059,0,0,0,.04-0.26c0.051-.2.053-0.43,0.108-0.65,0.149-.59.178-1.26,0.325-1.85,0.027-.2.054-0.39,0.082-0.59,0.2-.81.233-1.69,0.433-2.5,0.062-.26.045-0.49,0.108-0.75,0.122-.49.15-1.04,0.271-1.53,0.036-.15.017-0.27,0.054-0.42,0.09-.36.1-0.76,0.189-1.14,0.051-.2.054-0.43,0.109-0.65a7.527,7.527,0,0,0,.149-0.85h-0.014v-0.01h-4.589Zm11.574,0h-4.67v0.02a0.975,0.975,0,0,0-.041.25c-0.051.2-.053,0.43-0.108,0.65-0.149.59-.178,1.26-0.325,1.85-0.027.2-.054,0.39-0.081,0.59-0.2.81-.234,1.69-0.433,2.5-0.063.26-.045,0.49-0.109,0.75-0.122.49-.149,1.04-0.27,1.53-0.037.15-.018,0.27-0.055,0.42-0.09.36-.1,0.76-0.189,1.14-0.064.25-.068,0.53-0.135,0.81a6.828,6.828,0,0,0-.136.76,2.572,2.572,0,0,0,.623.01h5.915v-0.01h0.014v-11.27Zm2.274,0v11.27a2.572,2.572,0,0,0,.623.01h5.915a0.162,0.162,0,0,0,.013-0.05,1.388,1.388,0,0,1-.054-0.33c-0.051-.2-0.053-0.43-0.108-0.65-0.149-.59-0.178-1.26-0.325-1.85-0.036-.15-0.017-0.28-0.054-0.42-0.136-.55-0.164-1.15-0.3-1.7-0.036-.15-0.017-0.27-0.054-0.42-0.1-.38-0.122-0.82-0.217-1.2-0.036-.15-0.017-0.28-0.054-0.42-0.09-.37-0.1-0.76-0.189-1.14-0.064-.26-0.068-0.54-0.136-0.81-0.183-.74-0.236-1.54-0.392-2.29h-4.67Zm6.985,0a3.865,3.865,0,0,0,.135.86c0.037,0.15.017,0.28,0.054,0.42,0.15,0.6.177,1.26,0.325,1.86,0.063,0.25.045,0.49,0.108,0.74,0.2,0.81.233,1.7,0.433,2.51,0.063,0.25.045,0.49,0.109,0.75,0.135,0.54.163,1.15,0.3,1.69,0.036,0.15.017,0.27,0.054,0.42,0.09,0.36.1,0.76,0.189,1.14a5.77,5.77,0,0,1,.149.86,1.43,1.43,0,0,0,.555.03h5.915a0.23,0.23,0,0,0,.014-0.08,0.847,0.847,0,0,1-.081-0.24c-0.078-.21-0.135-0.43-0.217-0.65-0.21-.57-0.386-1.17-0.6-1.74-0.059-.16-0.077-0.3-0.136-0.46-0.7-1.87-1.228-3.84-1.922-5.72-0.21-.56-0.363-1.15-0.568-1.7a7.147,7.147,0,0,0-.231-0.69h-4.588Zm7,0a0.832,0.832,0,0,0,.095.28c0.072,0.19.122,0.39,0.189,0.57,0.231,0.62.4,1.26,0.623,1.87,0.158,0.42.247,0.85,0.406,1.27,0.559,1.5.986,3.08,1.543,4.58,0.25,0.68.431,1.37,0.677,2.03,0.062,0.17.105,0.34,0.162,0.49a0.337,0.337,0,0,0,.068.19h6.931c0-.01.009-0.03,0.013-0.04a3.58,3.58,0,0,1-.379-0.69c-0.294-.54-0.6-1.08-0.893-1.63-0.655-1.2-1.35-2.4-2-3.6-0.45-.83-0.868-1.67-1.353-2.46-0.164-.27-0.283-0.55-0.433-0.83-0.216-.4-0.462-0.8-0.677-1.19-0.1-.19-0.2-0.37-0.3-0.55a0.67,0.67,0,0,0-.163-0.28,0.938,0.938,0,0,0-.338-0.01h-4.169Zm-41.733,13.54a6.579,6.579,0,0,0,.136,2.04,3.592,3.592,0,0,0,2.558,2.31,3.547,3.547,0,0,0,2.017.03,4.99,4.99,0,0,0,.988-0.43,3.721,3.721,0,0,0,1.692-2.32c0.032-.12,0-0.23.027-0.37a2.287,2.287,0,0,0,.014-0.43v-0.81a0.121,0.121,0,0,1-.014-0.02h-7.418Zm9.706,0a2.119,2.119,0,0,0-.014.55,5.134,5.134,0,0,0,.082,1.27c0.045,0.16.052,0.3,0.108,0.45a3.364,3.364,0,0,0,2.206,2.08,3.21,3.21,0,0,0,1.747.08,3.4,3.4,0,0,0,2.626-3.56,5.231,5.231,0,0,0-.014-0.87h-6.741Zm15.77,0h-6.741a1.656,1.656,0,0,0-.014.42v0.9a2.444,2.444,0,0,1,.041.39,5.419,5.419,0,0,0,.135.53,3.563,3.563,0,0,0,1.448,1.79,3.809,3.809,0,0,0,.989.4,3.343,3.343,0,0,0,1.841-.1,3.409,3.409,0,0,0,2.247-2.52c0.028-.11,0-0.18.027-0.29a2.971,2.971,0,0,0,.027-0.58v-0.94Zm2.274,0v0.93a3.077,3.077,0,0,0,.027.59c0.025,0.11,0,.18.027,0.29a3.42,3.42,0,0,0,2.247,2.52,3.547,3.547,0,0,0,2.044.05,4.119,4.119,0,0,0,1.029-.51,3.535,3.535,0,0,0,1.2-1.63,5.937,5.937,0,0,0,.162-0.71v-0.21a2.515,2.515,0,0,0,.013-0.45v-0.85h-0.013v-0.02h-6.741Zm9.029,0a4.909,4.909,0,0,0-.014.86,3.341,3.341,0,0,0,2.1,3.38,3.415,3.415,0,0,0,2.626,0,3.527,3.527,0,0,0,1.855-1.97c0.076-.21.108-0.44,0.162-0.65v-0.17a8.114,8.114,0,0,0,.027-1.43h-0.013v-0.02H841.01Zm16.446,0h-7.418a1.625,1.625,0,0,0-.013.41v0.85a2.437,2.437,0,0,1,.04.37,4.3,4.3,0,0,0,.19.62,3.8,3.8,0,0,0,1.692,1.8,4.591,4.591,0,0,0,1.015.38,3.539,3.539,0,0,0,1.895-.1c0.169-.07.321-0.09,0.474-0.17a3.758,3.758,0,0,0,2.044-2.3A7.145,7.145,0,0,0,857.456,8291.03Zm-50.3,35.21h4.508v-22.51c0-.17.009-0.34,0.013-0.5a1.541,1.541,0,0,1,.244-0.52,1.249,1.249,0,0,1,.7-0.39h12.345a6.6,6.6,0,0,1,1.814.08,1.2,1.2,0,0,1,.677.88v22.96h27.072v-27.67a3.7,3.7,0,0,0-.013-0.82,4.434,4.434,0,0,1-1.584-.01h-0.122c-0.267-.07-0.558-0.1-0.812-0.19a7.911,7.911,0,0,1-1.963-1,6.322,6.322,0,0,1-.812-0.75,1.1,1.1,0,0,0-.3-0.31,1.705,1.705,0,0,1-.216.27,3.019,3.019,0,0,1-.636.65c-0.053.04-.1,0.11-0.149,0.15-0.206.15-.419,0.31-0.637,0.45a6.112,6.112,0,0,1-1.475.62,3.054,3.054,0,0,1-.311.06c-0.184.04-.424,0.06-0.623,0.1h-0.325a0.96,0.96,0,0,1-.338,0h-0.339c-0.178-.04-0.386-0.03-0.568-0.08a5.8,5.8,0,0,1-1.219-.38,7.3,7.3,0,0,1-1.028-.59c-0.191-.14-0.356-0.31-0.542-0.45a1.745,1.745,0,0,1-.27-0.3c-0.056-.07-0.148-0.13-0.2-0.2a0.723,0.723,0,0,0-.19-0.23,3.352,3.352,0,0,1-.745.8c-0.175.13-.331,0.3-0.514,0.43a6.9,6.9,0,0,1-1.218.65,5.79,5.79,0,0,1-.948.27l-0.27.03a2.871,2.871,0,0,1-.975.05h-0.325c-0.232-.05-0.489-0.04-0.717-0.1a7.58,7.58,0,0,1-1.137-.38,8.485,8.485,0,0,1-1.151-.71c-0.153-.11-0.28-0.26-0.433-0.38a0.669,0.669,0,0,1-.136-0.16c-0.07-.09-0.186-0.16-0.257-0.26a0.465,0.465,0,0,0-.216-0.23,1.287,1.287,0,0,1-.257.31,3.812,3.812,0,0,1-.867.8,6.973,6.973,0,0,1-1.408.79,6.135,6.135,0,0,1-.744.22c-0.229.06-.485,0.05-0.717,0.1H826.5a2.634,2.634,0,0,1-.975-0.05l-0.271-.03a5.778,5.778,0,0,1-.947-0.27,6.9,6.9,0,0,1-1.219-.65c-0.182-.13-0.339-0.3-0.514-0.43a3.347,3.347,0,0,1-.744-0.8H821.8a1.458,1.458,0,0,1-.244.3,3.7,3.7,0,0,1-.717.69c-0.2.15-.4,0.32-0.623,0.46a6.61,6.61,0,0,1-1.706.68c-0.2.05-.4,0.03-0.622,0.08a3.583,3.583,0,0,1-1.178,0c-0.22-.05-0.406-0.03-0.609-0.08a6.863,6.863,0,0,1-1.367-.49,6.228,6.228,0,0,1-1.462-1.09,3.473,3.473,0,0,1-.366-0.4,0.442,0.442,0,0,0-.189-0.22,4.227,4.227,0,0,1-.961.95,7.156,7.156,0,0,1-.582.43,6.118,6.118,0,0,1-4.007.88,3.642,3.642,0,0,0-.014.82v27.67Zm28.034-23.92h13.875a1.484,1.484,0,0,1,.555.27,0.768,0.768,0,0,1,.149.12,2.138,2.138,0,0,1,.257,1.42v10.14a1.677,1.677,0,0,0,.392.01h0.8a1.094,1.094,0,0,0,.257.04,1.267,1.267,0,0,1,.569.38,1.551,1.551,0,0,1,.189.35,1.165,1.165,0,0,1-.622,1.41,4.7,4.7,0,0,1-1.53.08H832.928a1.187,1.187,0,0,1-.92-0.79,2.335,2.335,0,0,1-.027-0.25,0.927,0.927,0,0,1,.027-0.42,1.507,1.507,0,0,1,.189-0.36c0.378-.52,1.131-0.44,2.017-0.44a1.231,1.231,0,0,0,.014-0.32v-10.68a1.651,1.651,0,0,0,.081-0.28,1.182,1.182,0,0,1,.325-0.44,1.845,1.845,0,0,1,.338-0.19A0.727,0.727,0,0,0,835.189,8302.32Zm-21.252,2.26a4.624,4.624,0,0,0-.014.91v8.78a1.152,1.152,0,0,0,.325.01h10.938a4.706,4.706,0,0,0,.013-0.91v-8.77h-0.013v-0.02H813.937Zm22.565,0a4.624,4.624,0,0,0-.014.91v8.78a1.152,1.152,0,0,0,.325.01h10.938a4.706,4.706,0,0,0,.013-0.91v-8.77h-0.013v-0.02H836.5Zm-22.579,21.66H825.2v-9.68h-0.027a0.63,0.63,0,0,0-.244-0.02H813.937a4.624,4.624,0,0,0-.014.91v8.79Zm21.361-7.45h8.825a2.237,2.237,0,0,1,.528.03,1.141,1.141,0,0,1,.745.6,0.947,0.947,0,0,1,.135.62,1.211,1.211,0,0,1-.771.98,2.581,2.581,0,0,1-.7.05h-8.217a2.56,2.56,0,0,1-.907-0.08,1.184,1.184,0,0,1-.663-1.36,1.63,1.63,0,0,1,.162-0.35,1.282,1.282,0,0,1,.583-0.43A1.29,1.29,0,0,0,835.284,8318.79Zm13.536,0a1.129,1.129,0,0,1,1.137.78,1.179,1.179,0,0,1,0,.78,1.229,1.229,0,0,1-.948.72,0.912,0.912,0,0,1-.568-0.11,1.126,1.126,0,0,1-.623-1.41,1.234,1.234,0,0,1,.582-0.65,2.11,2.11,0,0,1,.231-0.08A0.547,0.547,0,0,0,848.82,8318.79Z" transform="translate(-801.969 -8270.69)"/>
</svg>
