<svg xmlns="http://www.w3.org/2000/svg" width="57.875" height="57.81" viewBox="0 0 57.875 57.81">
  <defs>
    <style>
      .cls-1 {
        fill: #fba681;
        fill-rule: evenodd;
      }
    </style>
  </defs>
  <path id="new_vector_shape_done" class="cls-1" d="M567.77,8290.93h15.461a2.849,2.849,0,0,1,1.5.2c0.445,0.32.376,0.93,0.376,1.68v3.87a2.3,2.3,0,0,1-.318,1.73,1.349,1.349,0,0,1-.463.23h-6.17a2.424,2.424,0,0,0,.362.62c0.329,0.53.629,1.07,0.953,1.59,0.1,0.15.19,0.31,0.275,0.46a1.237,1.237,0,0,0,.115.22h5.246v1.93h-5.925a1.191,1.191,0,0,1-.5-0.23,1.259,1.259,0,0,1-.275-0.4c-0.146-.24-0.283-0.48-0.434-0.72-0.485-.78-0.959-1.59-1.444-2.37-0.172-.28-0.319-0.56-0.492-0.82a1.179,1.179,0,0,0-.159-0.28H564.9a2.493,2.493,0,0,0-.015.64v5.92a0.826,0.826,0,0,1,.029.23,4.2,4.2,0,0,0,.174.66,3.378,3.378,0,0,0,2.312,2.08,3.456,3.456,0,0,0,1.921-.08,3.391,3.391,0,0,0,2.24-2.52,4.541,4.541,0,0,0,.058-1.12v-1.94a2.441,2.441,0,0,1,.607-0.01h1.315a3.673,3.673,0,0,1,.014.83v1.84a3,3,0,0,0-.058.55,8.979,8.979,0,0,1-.26,1.01,5.317,5.317,0,0,1-3.612,3.29c-0.032.1-.022,0.21-0.058,0.32a6.8,6.8,0,0,1-.289.85c-0.09.18-.181,0.38-0.289,0.55-0.1.15-.234,0.29-0.318,0.45H568.7a3.426,3.426,0,0,0,.491.08c0.317,0.1.656,0.17,0.954,0.29a6.833,6.833,0,0,1,2.919,2.17,8.245,8.245,0,0,1,1.127,2.18,6.7,6.7,0,0,1,.058,3.65,8.072,8.072,0,0,1-.376,1.11,7.031,7.031,0,0,1-3.035,3.19,7.912,7.912,0,0,1-1.329.52c-0.271.09-.572,0.11-0.852,0.18-0.166.04-.3-0.01-0.477,0.03a4.918,4.918,0,0,1-.867.02h-3.829a6.207,6.207,0,0,1-1.46-.08,5.543,5.543,0,0,1-.953-0.29,4.854,4.854,0,0,1-2.948-4.43,2.027,2.027,0,0,1,.607-0.02h1.329a2.6,2.6,0,0,0,.26,1.16,2.879,2.879,0,0,0,2.182,1.7,4.265,4.265,0,0,0,.954.03h4.58c0.159-.04.353-0.01,0.52-0.06a4.982,4.982,0,0,0,.882-0.23,4.863,4.863,0,0,0,2.846-2.89,4.676,4.676,0,0,0,.289-1.73,2.51,2.51,0,0,0-.028-0.58,6.238,6.238,0,0,0-.261-1.02,5.09,5.09,0,0,0-2.673-2.76,6.812,6.812,0,0,0-1.185-.32h-0.158a8.587,8.587,0,0,0-1.532-.03h-2.919a7.434,7.434,0,0,1-2.355-.23,4.874,4.874,0,0,1-3.251-3.68c-0.033-.13-0.032-0.27-0.058-0.38v-0.23a4.282,4.282,0,0,1-.029-0.83v-1.49a1.46,1.46,0,0,0-.448.29q-0.5.33-1,.66a4.332,4.332,0,0,0-.462.29v6.56h-1.937v-5.25h-0.028a1.208,1.208,0,0,1-.246.16,5.141,5.141,0,0,1-.564.35,8.381,8.381,0,0,1-1.112.49c-0.237.08-.494,0.11-0.737,0.17l-0.332.03a4.984,4.984,0,0,1-2.3-.17c-0.183-.06-0.348-0.07-0.52-0.14a8.169,8.169,0,0,1-1.243-.64,2.77,2.77,0,0,0-.621-0.43V8315a2.421,2.421,0,0,1-.607.02h-1.315v-6.1a4.686,4.686,0,0,0-.014-0.78,0.986,0.986,0,0,1-.231-0.17c-0.164-.12-0.32-0.23-0.477-0.35a10.164,10.164,0,0,1-1.3-1.11,4.364,4.364,0,0,1-.419-0.43c-0.146-.2-0.358-0.36-0.5-0.55-0.315-.42-0.643-0.84-0.925-1.29a13.834,13.834,0,0,1-1.5-3.45c-0.155-.51-0.19-1.06-0.318-1.6-0.036-.15.007-0.28-0.029-0.43a10.652,10.652,0,0,1-.058-2.04,2.442,2.442,0,0,1,.607-0.01h1.286a0.092,0.092,0,0,0,.029.01v0.98a1.973,1.973,0,0,1,.015.52c0.04,0.27.021,0.57,0.086,0.84,0.052,0.21.056,0.44,0.116,0.66a11.107,11.107,0,0,0,.462,1.53c0.074,0.17.094,0.33,0.174,0.5a14.16,14.16,0,0,0,1.04,1.87c0.31,0.44.691,0.82,1.011,1.24,0.058,0.06.116,0.11,0.174,0.16a4.69,4.69,0,0,0,.462.44c0.181,0.13.336,0.32,0.52,0.46,0.561,0.41,1.121.81,1.691,1.21,0.426,0.3.844,0.62,1.272,0.93a7.1,7.1,0,0,0,.78.54,4.309,4.309,0,0,0,3.41.24,11.318,11.318,0,0,0,1.691-1.03q1.151-.765,2.3-1.53c0.508-.34,1.014-0.68,1.517-1.01,0.147-.1.291-0.2,0.434-0.29a0.735,0.735,0,0,0,.173-0.1v-6.22a1.681,1.681,0,0,0-.506-0.02h-4.681a1.472,1.472,0,0,0-.376-0.06,5.01,5.01,0,0,1-.535-0.14,3.931,3.931,0,0,1-1.676-1.17,4.833,4.833,0,0,1-.751-1.43,3.932,3.932,0,0,1,.26-2.73,3.883,3.883,0,0,1,2.514-2.06,7.6,7.6,0,0,1,2.066-.12h3.685a7.829,7.829,0,0,0-.029-1.47c-0.044-.21.009-0.45-0.029-0.62v-0.35c-0.06-.27-0.027-0.61-0.086-0.88-0.041-.18.012-0.33-0.029-0.51-0.078-.33-0.067-0.74-0.145-1.06-0.047-.2-0.011-0.37-0.058-0.57-0.1-.41-0.127-0.88-0.231-1.28-0.025-.1,0-0.16-0.029-0.26-0.138-.53-0.206-1.12-0.347-1.65-0.028-.17-0.057-0.35-0.086-0.52-0.087-.32-0.112-0.67-0.2-1.01a3.7,3.7,0,0,1-.131-0.63h-0.043a1.139,1.139,0,0,1-.159.23c-0.159.22-.319,0.44-0.477,0.66-0.406.56-.858,1.07-1.271,1.62-0.143.19-.332,0.34-0.477,0.53l-0.188.18c-0.078.1-.185,0.17-0.26,0.27a4.362,4.362,0,0,1-.708.71c-0.164.12-.283,0.32-0.448,0.45-0.388.29-.72,0.64-1.113,0.93-0.212.16-.4,0.37-0.621,0.52-0.621.45-1.24,0.92-1.893,1.33a28.348,28.348,0,0,1-5.23,2.57c-0.687.26-1.408,0.45-2.124,0.67-0.393.12-.8,0.16-1.185,0.29-0.086.02-.144,0-0.232,0.02-0.447.12-.962,0.17-1.416,0.29-0.143.04-.259,0.02-0.4,0.06-0.31.08-.672,0.12-0.983,0.2a1.56,1.56,0,0,0-.534.12,0.673,0.673,0,0,0-.015.26v12.58a1.029,1.029,0,0,1-.91.79h-0.318a5.093,5.093,0,0,0-1.113.03,1.984,1.984,0,0,0-1.5,1.67,1.264,1.264,0,0,0,.029.49c0.022,0.1,0,.15.028,0.24a2.13,2.13,0,0,0,.347.64,1.891,1.891,0,0,0,1.041.71,2.958,2.958,0,0,0,.809.06h4.479v1.92a2.421,2.421,0,0,1-.607.02h-5.577a1.972,1.972,0,0,1-.434.05c-0.257.07-.524,0.12-0.766,0.21a4.922,4.922,0,0,0-2.1,1.45,5.83,5.83,0,0,0-.953,1.84,4.878,4.878,0,0,0,3.251,5.86,8.456,8.456,0,0,0,2.644.2h4.537v1.92a2.3,2.3,0,0,1-.592.02h-5.448a1.7,1.7,0,0,0-.4-0.03c-0.231-.06-0.492-0.05-0.723-0.12a7.892,7.892,0,0,1-2.066-.81,7.168,7.168,0,0,1-2.7-3.04,7.058,7.058,0,0,1-.318-0.94c-0.111-.34-0.14-0.75-0.231-1.13a2.443,2.443,0,0,1-.015-0.33,2.515,2.515,0,0,1-.014-0.69,12.61,12.61,0,0,1,.231-1.43,7.917,7.917,0,0,1,.853-1.91,6.608,6.608,0,0,1,2.08-2.05,9.571,9.571,0,0,1,1.084-.55,0.715,0.715,0,0,0,.347-0.14,1.676,1.676,0,0,1-.347-0.57c-0.074-.16-0.167-0.34-0.231-0.52a4,4,0,0,1-.058-2.13,3.837,3.837,0,0,1,3.714-2.88,1.965,1.965,0,0,0,.014-0.49v-16.02a1.742,1.742,0,0,0,.014-0.38c0.029-.13-0.018-0.32.015-0.46s0.026-.37.058-0.51v-0.2c0.079-.34.058-0.71,0.144-1.05a22.839,22.839,0,0,1,.549-2.27,20.934,20.934,0,0,1,1.214-2.83,16.66,16.66,0,0,1,5.939-6.2,17.2,17.2,0,0,1,3.511-1.58c0.378-.13.775-0.21,1.156-0.32,0.5-.15,1.04-0.17,1.56-0.29l0.376-.03c0.223-.05.523-0.04,0.751-0.09h0.391a5.968,5.968,0,0,1,1.4,0,3.922,3.922,0,0,0,.463.03l0.491,0.03c0.538,0.13,1.1.12,1.618,0.26s1.048,0.23,1.546.41a17.8,17.8,0,0,1,2.2.89c0.459,0.23.9,0.43,1.329,0.69a17.022,17.022,0,0,1,5.534,5.43c0.471,0.76.834,1.57,1.243,2.4,0.08,0.16.1,0.32,0.173,0.49a16.4,16.4,0,0,1,.636,1.97c0.106,0.36.14,0.75,0.231,1.12,0.083,0.34.069,0.7,0.144,1.03v0.2c0.029,0.13.03,0.33,0.058,0.46v0.36a6.137,6.137,0,0,1,.029,1.16v3.26Zm2.89-20.22h1.907a0.362,0.362,0,0,1,.015.12,4.742,4.742,0,0,0-.072.49,3.493,3.493,0,0,1-.289.72,2.771,2.771,0,0,1-.651.78,6.438,6.438,0,0,0-.621.49,0.67,0.67,0,0,0-.289.67,1.98,1.98,0,0,0,.838.84,2.847,2.847,0,0,1,.983,1.51,1.832,1.832,0,0,1,.1.75,4.936,4.936,0,0,1-.1.6,3.043,3.043,0,0,1-1,1.47,2.33,2.33,0,0,0-.8.72,0.744,0.744,0,0,0-.029.38,2.56,2.56,0,0,0,.983.95,1.142,1.142,0,0,1,.2.23c0.067,0.09.166,0.17,0.231,0.26a2.746,2.746,0,0,1,.506,1.54h-0.029a1.752,1.752,0,0,1-.52.02h-1.358c-0.054-.11-0.054-0.25-0.116-0.35a3.731,3.731,0,0,0-.838-0.71l-0.145-.15a2.959,2.959,0,0,1-.65-1,2.305,2.305,0,0,1-.2-1.1,5.408,5.408,0,0,1,.115-0.58,2.993,2.993,0,0,1,.882-1.34,3.39,3.39,0,0,0,.795-0.68,0.557,0.557,0,0,0,.144-0.37,1.705,1.705,0,0,0-.9-1,2.9,2.9,0,0,1-.925-1.37c-0.036-.11-0.028-0.19-0.057-0.3a2.047,2.047,0,0,1,0-.99,3.744,3.744,0,0,1,.448-1.01c0.061-.08.153-0.16,0.216-0.24a1.08,1.08,0,0,1,.217-0.25A1.938,1.938,0,0,0,570.66,8270.71Zm6.733,0a2.867,2.867,0,0,1-1.025,2.13,1.79,1.79,0,0,0-.9.94,0.54,0.54,0,0,0,.159.46,2.9,2.9,0,0,0,.664.56,3.006,3.006,0,0,1,1.07,1.76,2.046,2.046,0,0,1-.029.88,4.486,4.486,0,0,1-.116.47,2.9,2.9,0,0,1-.867,1.19,1.748,1.748,0,0,0-.881.94,0.515,0.515,0,0,0,.13.42,3.172,3.172,0,0,0,.737.64,2.839,2.839,0,0,1,1.054,2.13,2.022,2.022,0,0,1-.606.02h-1.3c-0.05-.1-0.043-0.24-0.1-0.33a3.505,3.505,0,0,0-.881-0.75,2.064,2.064,0,0,1-.26-0.29c-0.049-.07-0.127-0.12-0.174-0.19a3.036,3.036,0,0,1-.376-0.78,2.282,2.282,0,0,1-.144-0.84v-0.21a4.215,4.215,0,0,1,.173-0.7,3,3,0,0,1,.954-1.25,1.934,1.934,0,0,0,.78-0.77v-0.32a2.238,2.238,0,0,0-.9-0.86,2.924,2.924,0,0,1-.867-1.24c-0.047-.13-0.046-0.24-0.086-0.38a2.113,2.113,0,0,1-.029-0.94,3.424,3.424,0,0,1,.448-1.07c0.079-.11.193-0.21,0.274-0.32a0.974,0.974,0,0,1,.145-0.17,3.325,3.325,0,0,0,.982-0.88,1.386,1.386,0,0,0,.044-0.25h1.921Zm-14.449,20.22v-3.84h1.936v3.84h0.954v-3.12a9.205,9.205,0,0,0-.058-1.73v-0.22c-0.093-.4-0.068-0.84-0.173-1.24-0.068-.26-0.093-0.54-0.174-0.81-0.141-.46-0.27-0.95-0.433-1.38-0.041-.11-0.041-0.2-0.087-0.31-0.34-.78-0.672-1.52-1.069-2.24a16.015,16.015,0,0,0-4.812-4.98,16.784,16.784,0,0,0-4.118-1.79c-0.493-.15-1.028-0.19-1.546-0.32-0.231-.05-0.475-0.03-0.693-0.08h-0.2c-0.17-.04-0.4,0-0.592-0.05a4.577,4.577,0,0,0-1.171.02c-0.242.05-.46-0.03-0.693,0.03-0.463.1-.952,0.08-1.4,0.2a20.347,20.347,0,0,0-2.124.61,12.946,12.946,0,0,0-1.3.52,14.754,14.754,0,0,0-6.921,6.98c-0.043.09-.045,0.17-0.087,0.25a16.626,16.626,0,0,0-.925,2.79c-0.085.3-.07,0.59-0.144,0.91-0.085.35-.061,0.79-0.145,1.17v0.39a5.8,5.8,0,0,0-.029,1.12v2.11a0.729,0.729,0,0,0,.087.02,4.046,4.046,0,0,1,.766-0.15c0.5-.13,1.074-0.18,1.575-0.32,0.145-.04.263-0.02,0.4-0.05,0.445-.12.915-0.19,1.359-0.32a25.491,25.491,0,0,0,2.817-.95c0.274-.13.545-0.19,0.809-0.32,1.018-.51,2.026-0.98,2.962-1.56,0.693-.43,1.358-0.91,2.009-1.39,0.333-.24.637-0.53,0.968-0.78,0.276-.21.5-0.48,0.78-0.69,0.073-.08.145-0.16,0.217-0.23a4.54,4.54,0,0,0,.448-0.44,4.254,4.254,0,0,0,.419-0.43c0.072-.07.145-0.13,0.217-0.2,0.127-.17.277-0.31,0.4-0.48,0.082-.1.208-0.19,0.289-0.3,0.365-.48.777-0.93,1.127-1.43,0.334-.47.641-0.95,0.954-1.44,0.118-.19.267-0.39,0.376-0.58a3.8,3.8,0,0,1,.621-1.01,1.068,1.068,0,0,1,.983-0.16,1.042,1.042,0,0,1,.592.69c0.065,0.23.055,0.44,0.116,0.67,0.141,0.53.206,1.11,0.346,1.64,0.029,0.18.058,0.35,0.087,0.52,0.168,0.63.238,1.31,0.4,1.94,0.029,0.17.057,0.34,0.086,0.52,0.148,0.55.2,1.15,0.347,1.71,0.057,0.23.03,0.43,0.087,0.65,0.106,0.42.1,0.92,0.2,1.35,0.01,0.14.019,0.28,0.029,0.42,0.071,0.3.045,0.69,0.116,1.01v0.26c0.033,0.15.024,0.38,0.057,0.53v0.36c0.042,0.19-.018.45,0.029,0.67a7.674,7.674,0,0,1,.029,1.43,5.3,5.3,0,0,0,.9.01h1.994Zm-8.67,5.78v-3.83a1.2,1.2,0,0,0-.332-0.01h-0.737a1.483,1.483,0,0,1-.231.02c-0.1.03-.221,0.05-0.318,0.09a2.094,2.094,0,0,0-.982.79,2.565,2.565,0,0,0-.232.55,1.872,1.872,0,0,0,.029.99,1.945,1.945,0,0,0,1.3,1.34A6.089,6.089,0,0,0,554.274,8296.71Zm1.937,0h1.907v-3.83a2.441,2.441,0,0,0-.607-0.01h-1.286a1.39,1.39,0,0,0-.014.36v3.48Zm6.733,0v-3.83a4.425,4.425,0,0,0-.9-0.01h-1.965a5.053,5.053,0,0,0-.029,1.09v2.73a4.388,4.388,0,0,0,.9.02h1.994Zm1.936,0h10.577v-3.83a5.477,5.477,0,0,0-1-.01H564.9a1.387,1.387,0,0,0-.015.36v3.48Zm18.293,0v-3.83a2.1,2.1,0,0,0-.563-0.01h-5.188a5.053,5.053,0,0,0-.029,1.09v2.73a2.09,2.09,0,0,0,.564.02h5.216Zm-23.09,1.93a3.2,3.2,0,0,0-.029.88v9.85a1.137,1.137,0,0,1,.029.29,3.672,3.672,0,0,0,.145.58,3.025,3.025,0,0,0,1.286,1.51,4.619,4.619,0,0,0,2.413.38,7.73,7.73,0,0,0,1.372-.03,2.935,2.935,0,0,0,1.763-1.01,2.187,2.187,0,0,0,.52-0.93h-0.029a1.766,1.766,0,0,0-.346-0.05,7.124,7.124,0,0,1-.824-0.23,7.426,7.426,0,0,1-1.2-.64c-0.187-.13-0.352-0.3-0.535-0.43a2.476,2.476,0,0,1-.433-0.48,7.144,7.144,0,0,1-.607-0.84,7.272,7.272,0,0,1-.607-1.74c-0.035-.14,0-0.25-0.029-0.39a3.825,3.825,0,0,1-.029-0.73v-5.97H562.93v-0.02h-2.847Zm-28.928,25.04h1.937a2.877,2.877,0,0,0,1.445,2.51,3.583,3.583,0,0,0,.982.35,5.647,5.647,0,0,0,1.1.03h2.168a11.007,11.007,0,0,0,3.6-.26,5.218,5.218,0,0,0,2.21-1.59,5.927,5.927,0,0,0,.838-1.65,4.88,4.88,0,0,0-.086-2.84,4.822,4.822,0,0,0-2.645-2.9,5.011,5.011,0,0,0-2.413-.38h-2.369a1.684,1.684,0,0,1-.029-0.58v-1.34a1.2,1.2,0,0,1,.332-0.01h3.02a2.274,2.274,0,0,0,.535.05c0.345,0.09.706,0.12,1.026,0.23a8.485,8.485,0,0,1,1.575.73c0.258,0.16.485,0.37,0.722,0.55a4,4,0,0,1,.506.46c0.058,0.05.115,0.1,0.173,0.16,0.226,0.3.491,0.57,0.694,0.89a8.691,8.691,0,0,1,.78,1.68,9.266,9.266,0,0,1,.231,1.05c0.038,0.16-.007.29,0.029,0.46a5.093,5.093,0,0,1-.144,1.95c-0.033.11-.024,0.2-0.058,0.31-0.1.3-.191,0.61-0.318,0.91a6.909,6.909,0,0,1-2.774,3.13,7.874,7.874,0,0,1-2.139.81c-0.273.07-.586,0.04-0.852,0.11a5.074,5.074,0,0,1-.781,0H536.5a6.166,6.166,0,0,1-1.46-.08,4.829,4.829,0,0,1-3.193-2.27A4.581,4.581,0,0,1,531.155,8323.68Z" transform="translate(-527.313 -8270.72)"/>
</svg>
